%TF.GenerationSoftware,KiCad,Pcbnew,(5.1.9)-1*%
%TF.CreationDate,2021-05-20T14:11:39+09:00*%
%TF.ProjectId,LED-Matrix-PCB,4c45442d-4d61-4747-9269-782d5043422e,rev?*%
%TF.SameCoordinates,Original*%
%TF.FileFunction,Copper,L2,Bot*%
%TF.FilePolarity,Positive*%
%FSLAX46Y46*%
G04 Gerber Fmt 4.6, Leading zero omitted, Abs format (unit mm)*
G04 Created by KiCad (PCBNEW (5.1.9)-1) date 2021-05-20 14:11:39*
%MOMM*%
%LPD*%
G01*
G04 APERTURE LIST*
%TA.AperFunction,ComponentPad*%
%ADD10O,1.700000X1.700000*%
%TD*%
%TA.AperFunction,ComponentPad*%
%ADD11R,1.700000X1.700000*%
%TD*%
%TA.AperFunction,ComponentPad*%
%ADD12O,1.700000X1.850000*%
%TD*%
%TA.AperFunction,ComponentPad*%
%ADD13C,1.700000*%
%TD*%
%TA.AperFunction,ComponentPad*%
%ADD14O,2.000000X3.500000*%
%TD*%
%TA.AperFunction,ComponentPad*%
%ADD15O,3.300000X2.000000*%
%TD*%
%TA.AperFunction,ComponentPad*%
%ADD16R,4.000000X2.000000*%
%TD*%
%TA.AperFunction,ViaPad*%
%ADD17C,0.800000*%
%TD*%
%TA.AperFunction,Conductor*%
%ADD18C,0.250000*%
%TD*%
%TA.AperFunction,Conductor*%
%ADD19C,0.254000*%
%TD*%
%TA.AperFunction,Conductor*%
%ADD20C,0.100000*%
%TD*%
G04 APERTURE END LIST*
D10*
%TO.P,J1,40*%
%TO.N,GPIO21*%
X155194000Y-76454000D03*
%TO.P,J1,39*%
%TO.N,GND*%
X155194000Y-73914000D03*
%TO.P,J1,38*%
%TO.N,GPIO20*%
X152654000Y-76454000D03*
%TO.P,J1,37*%
%TO.N,GPIO26*%
X152654000Y-73914000D03*
%TO.P,J1,36*%
%TO.N,GPIO16*%
X150114000Y-76454000D03*
%TO.P,J1,35*%
%TO.N,GPIO19*%
X150114000Y-73914000D03*
%TO.P,J1,34*%
%TO.N,GND*%
X147574000Y-76454000D03*
%TO.P,J1,33*%
%TO.N,GPIO13*%
X147574000Y-73914000D03*
%TO.P,J1,32*%
%TO.N,GPIO12*%
X145034000Y-76454000D03*
%TO.P,J1,31*%
%TO.N,GPIO6*%
X145034000Y-73914000D03*
%TO.P,J1,30*%
%TO.N,GND*%
X142494000Y-76454000D03*
%TO.P,J1,29*%
%TO.N,GPIO5*%
X142494000Y-73914000D03*
%TO.P,J1,28*%
%TO.N,GPIO1*%
X139954000Y-76454000D03*
%TO.P,J1,27*%
%TO.N,GPIO0*%
X139954000Y-73914000D03*
%TO.P,J1,26*%
%TO.N,GPIO7*%
X137414000Y-76454000D03*
%TO.P,J1,25*%
%TO.N,GND*%
X137414000Y-73914000D03*
%TO.P,J1,24*%
%TO.N,GPIO8*%
X134874000Y-76454000D03*
%TO.P,J1,23*%
%TO.N,GPIO11*%
X134874000Y-73914000D03*
%TO.P,J1,22*%
%TO.N,GPIO25*%
X132334000Y-76454000D03*
%TO.P,J1,21*%
%TO.N,GPIO9*%
X132334000Y-73914000D03*
%TO.P,J1,20*%
%TO.N,GND*%
X129794000Y-76454000D03*
%TO.P,J1,19*%
%TO.N,GPIO10*%
X129794000Y-73914000D03*
%TO.P,J1,18*%
%TO.N,GPIO24*%
X127254000Y-76454000D03*
%TO.P,J1,17*%
%TO.N,+3V3*%
X127254000Y-73914000D03*
%TO.P,J1,16*%
%TO.N,GPIO23*%
X124714000Y-76454000D03*
%TO.P,J1,15*%
%TO.N,GPIO22*%
X124714000Y-73914000D03*
%TO.P,J1,14*%
%TO.N,GND*%
X122174000Y-76454000D03*
%TO.P,J1,13*%
%TO.N,GPIO27*%
X122174000Y-73914000D03*
%TO.P,J1,12*%
%TO.N,GPIO18*%
X119634000Y-76454000D03*
%TO.P,J1,11*%
%TO.N,GPIO17*%
X119634000Y-73914000D03*
%TO.P,J1,10*%
%TO.N,GPIO15*%
X117094000Y-76454000D03*
%TO.P,J1,9*%
%TO.N,GND*%
X117094000Y-73914000D03*
%TO.P,J1,8*%
%TO.N,GPIO14*%
X114554000Y-76454000D03*
%TO.P,J1,7*%
%TO.N,GPIO4*%
X114554000Y-73914000D03*
%TO.P,J1,6*%
%TO.N,GND*%
X112014000Y-76454000D03*
%TO.P,J1,5*%
%TO.N,GPIO3*%
X112014000Y-73914000D03*
%TO.P,J1,4*%
%TO.N,+5V*%
X109474000Y-76454000D03*
%TO.P,J1,3*%
%TO.N,GPIO2*%
X109474000Y-73914000D03*
%TO.P,J1,2*%
%TO.N,+5V*%
X106934000Y-76454000D03*
D11*
%TO.P,J1,1*%
%TO.N,+3V3*%
X106934000Y-73914000D03*
%TD*%
D12*
%TO.P,Matrix_POWER,2*%
%TO.N,GND*%
X153884000Y-100330000D03*
%TO.P,Matrix_POWER,1*%
%TO.N,+5V*%
%TA.AperFunction,ComponentPad*%
G36*
G01*
X150534000Y-101005000D02*
X150534000Y-99655000D01*
G75*
G02*
X150784000Y-99405000I250000J0D01*
G01*
X151984000Y-99405000D01*
G75*
G02*
X152234000Y-99655000I0J-250000D01*
G01*
X152234000Y-101005000D01*
G75*
G02*
X151984000Y-101255000I-250000J0D01*
G01*
X150784000Y-101255000D01*
G75*
G02*
X150534000Y-101005000I0J250000D01*
G01*
G37*
%TD.AperFunction*%
%TD*%
%TO.P,J8,2*%
%TO.N,GND*%
X154138000Y-83058000D03*
%TO.P,J8,1*%
%TO.N,GPIO12*%
%TA.AperFunction,ComponentPad*%
G36*
G01*
X150788000Y-83733000D02*
X150788000Y-82383000D01*
G75*
G02*
X151038000Y-82133000I250000J0D01*
G01*
X152238000Y-82133000D01*
G75*
G02*
X152488000Y-82383000I0J-250000D01*
G01*
X152488000Y-83733000D01*
G75*
G02*
X152238000Y-83983000I-250000J0D01*
G01*
X151038000Y-83983000D01*
G75*
G02*
X150788000Y-83733000I0J250000D01*
G01*
G37*
%TD.AperFunction*%
%TD*%
%TO.P,J7,1*%
%TO.N,GPIO16*%
%TA.AperFunction,ComponentPad*%
G36*
G01*
X107354000Y-83733000D02*
X107354000Y-82383000D01*
G75*
G02*
X107604000Y-82133000I250000J0D01*
G01*
X108804000Y-82133000D01*
G75*
G02*
X109054000Y-82383000I0J-250000D01*
G01*
X109054000Y-83733000D01*
G75*
G02*
X108804000Y-83983000I-250000J0D01*
G01*
X107604000Y-83983000D01*
G75*
G02*
X107354000Y-83733000I0J250000D01*
G01*
G37*
%TD.AperFunction*%
%TO.P,J7,2*%
%TO.N,GPIO26*%
X110704000Y-83058000D03*
%TO.P,J7,3*%
%TO.N,GPIO27*%
X113204000Y-83058000D03*
%TO.P,J7,4*%
%TO.N,GPIO5*%
X115704000Y-83058000D03*
%TO.P,J7,5*%
%TO.N,GND*%
X118204000Y-83058000D03*
%TD*%
%TO.P,J6,1*%
%TO.N,GPIO11*%
%TA.AperFunction,ComponentPad*%
G36*
G01*
X141898000Y-83733000D02*
X141898000Y-82383000D01*
G75*
G02*
X142148000Y-82133000I250000J0D01*
G01*
X143348000Y-82133000D01*
G75*
G02*
X143598000Y-82383000I0J-250000D01*
G01*
X143598000Y-83733000D01*
G75*
G02*
X143348000Y-83983000I-250000J0D01*
G01*
X142148000Y-83983000D01*
G75*
G02*
X141898000Y-83733000I0J250000D01*
G01*
G37*
%TD.AperFunction*%
%TO.P,J6,2*%
%TO.N,GND*%
X145248000Y-83058000D03*
%TD*%
%TO.P,J5,1*%
%TO.N,GPIO10*%
%TA.AperFunction,ComponentPad*%
G36*
G01*
X133008000Y-83733000D02*
X133008000Y-82383000D01*
G75*
G02*
X133258000Y-82133000I250000J0D01*
G01*
X134458000Y-82133000D01*
G75*
G02*
X134708000Y-82383000I0J-250000D01*
G01*
X134708000Y-83733000D01*
G75*
G02*
X134458000Y-83983000I-250000J0D01*
G01*
X133258000Y-83983000D01*
G75*
G02*
X133008000Y-83733000I0J250000D01*
G01*
G37*
%TD.AperFunction*%
%TO.P,J5,2*%
%TO.N,GND*%
X136358000Y-83058000D03*
%TD*%
%TO.P,LED_Matrix,1*%
%TO.N,GPIO17*%
%TA.AperFunction,ComponentPad*%
G36*
G01*
X124298000Y-99910000D02*
X123098000Y-99910000D01*
G75*
G02*
X122848000Y-99660000I0J250000D01*
G01*
X122848000Y-98460000D01*
G75*
G02*
X123098000Y-98210000I250000J0D01*
G01*
X124298000Y-98210000D01*
G75*
G02*
X124548000Y-98460000I0J-250000D01*
G01*
X124548000Y-99660000D01*
G75*
G02*
X124298000Y-99910000I-250000J0D01*
G01*
G37*
%TD.AperFunction*%
D13*
%TO.P,LED_Matrix,3*%
%TO.N,GPIO22*%
X126238000Y-99060000D03*
%TO.P,LED_Matrix,5*%
%TO.N,GPIO23*%
X128778000Y-99060000D03*
%TO.P,LED_Matrix,7*%
%TO.N,GPIO25*%
X131318000Y-99060000D03*
%TO.P,LED_Matrix,9*%
%TO.N,GPIO7*%
X133858000Y-99060000D03*
%TO.P,LED_Matrix,11*%
%TO.N,GPIO9*%
X136398000Y-99060000D03*
%TO.P,LED_Matrix,13*%
%TO.N,GPIO3*%
X138938000Y-99060000D03*
%TO.P,LED_Matrix,15*%
%TO.N,GPIO2*%
X141478000Y-99060000D03*
%TO.P,LED_Matrix,2*%
%TO.N,GPIO18*%
X123698000Y-96520000D03*
%TO.P,LED_Matrix,4*%
%TO.N,GND*%
X126238000Y-96520000D03*
%TO.P,LED_Matrix,6*%
%TO.N,GPIO24*%
X128778000Y-96520000D03*
%TO.P,LED_Matrix,8*%
%TO.N,GND*%
X131318000Y-96520000D03*
%TO.P,LED_Matrix,10*%
%TO.N,GPIO8*%
X133858000Y-96520000D03*
%TO.P,LED_Matrix,12*%
%TO.N,GND*%
X136398000Y-96520000D03*
%TO.P,LED_Matrix,14*%
%TO.N,GPIO4*%
X138938000Y-96520000D03*
%TO.P,LED_Matrix,16*%
%TO.N,GND*%
X141478000Y-96520000D03*
%TD*%
%TO.P,J3,1*%
%TO.N,GPIO6*%
%TA.AperFunction,ComponentPad*%
G36*
G01*
X123864000Y-83733000D02*
X123864000Y-82383000D01*
G75*
G02*
X124114000Y-82133000I250000J0D01*
G01*
X125314000Y-82133000D01*
G75*
G02*
X125564000Y-82383000I0J-250000D01*
G01*
X125564000Y-83733000D01*
G75*
G02*
X125314000Y-83983000I-250000J0D01*
G01*
X124114000Y-83983000D01*
G75*
G02*
X123864000Y-83733000I0J250000D01*
G01*
G37*
%TD.AperFunction*%
D12*
%TO.P,J3,2*%
%TO.N,GND*%
X127214000Y-83058000D03*
%TD*%
D14*
%TO.P,J2,MP*%
%TO.N,N/C*%
X115752000Y-97170000D03*
X106752000Y-97170000D03*
D15*
%TO.P,J2,2*%
%TO.N,GND*%
X111252000Y-96170000D03*
D16*
%TO.P,J2,1*%
%TO.N,+5V*%
X111252000Y-90170000D03*
%TD*%
D17*
%TO.N,GND*%
X108204000Y-86360000D03*
X111879010Y-81668990D03*
X114059000Y-86119000D03*
X108204000Y-80772000D03*
X140970000Y-83820000D03*
X137922000Y-89662000D03*
X129032000Y-94742000D03*
X121920000Y-96012000D03*
%TO.N,GPIO16*%
X126923800Y-90855800D03*
X129286000Y-93218000D03*
X147828000Y-92456000D03*
%TO.N,GPIO7*%
X140113001Y-94074999D03*
%TO.N,GPIO9*%
X135890000Y-88900000D03*
%TD*%
D18*
%TO.N,GND*%
X112028990Y-81818970D02*
X111879010Y-81668990D01*
X112028990Y-84088990D02*
X112028990Y-81818970D01*
X114059000Y-86119000D02*
X112028990Y-84088990D01*
%TO.N,GPIO5*%
X113378999Y-80732999D02*
X115704000Y-83058000D01*
X113378999Y-73349999D02*
X113378999Y-80732999D01*
X114440008Y-72288990D02*
X113378999Y-73349999D01*
X140868990Y-72288990D02*
X114440008Y-72288990D01*
X142494000Y-73914000D02*
X140868990Y-72288990D01*
%TO.N,GPIO16*%
X126923800Y-90855800D02*
X129286000Y-93218000D01*
X129286000Y-93218000D02*
X129286000Y-93218000D01*
X147828000Y-78740000D02*
X150114000Y-76454000D01*
X147828000Y-92456000D02*
X147828000Y-78740000D01*
%TO.N,GPIO7*%
X140113001Y-79153001D02*
X140113001Y-94074999D01*
X137414000Y-76454000D02*
X140113001Y-79153001D01*
X140113001Y-94074999D02*
X140113001Y-94074999D01*
%TO.N,GPIO25*%
X132493001Y-76613001D02*
X132334000Y-76454000D01*
X132493001Y-97884999D02*
X132493001Y-76613001D01*
X131318000Y-99060000D02*
X132493001Y-97884999D01*
%TO.N,GPIO9*%
X135222999Y-97884999D02*
X136398000Y-99060000D01*
X135222999Y-95955999D02*
X135222999Y-97884999D01*
X135890000Y-95288998D02*
X135222999Y-95955999D01*
X135890000Y-88900000D02*
X135890000Y-95288998D01*
%TO.N,GPIO24*%
X123538990Y-80169010D02*
X127254000Y-76454000D01*
X123538990Y-91280990D02*
X123538990Y-80169010D01*
X128778000Y-96520000D02*
X123538990Y-91280990D01*
%TO.N,GPIO23*%
X125889001Y-75278999D02*
X124714000Y-76454000D01*
X127818001Y-75278999D02*
X125889001Y-75278999D01*
X128429001Y-76867001D02*
X128429001Y-75889999D01*
X130142999Y-78580999D02*
X128429001Y-76867001D01*
X130142999Y-97695001D02*
X130142999Y-78580999D01*
X128429001Y-75889999D02*
X127818001Y-75278999D01*
X128778000Y-99060000D02*
X130142999Y-97695001D01*
%TO.N,GPIO22*%
X123088980Y-91467390D02*
X123088980Y-78587020D01*
X124873001Y-93251411D02*
X123088980Y-91467390D01*
X124873001Y-96894003D02*
X124873001Y-93251411D01*
X126238000Y-98259002D02*
X124873001Y-96894003D01*
X126238000Y-99060000D02*
X126238000Y-98259002D01*
X123538999Y-75089001D02*
X124714000Y-73914000D01*
X123538999Y-78137001D02*
X123538999Y-75089001D01*
X123088980Y-78587020D02*
X123538999Y-78137001D01*
%TO.N,GPIO18*%
X119634000Y-92456000D02*
X119634000Y-76454000D01*
X123698000Y-96520000D02*
X119634000Y-92456000D01*
%TO.N,GPIO17*%
X118458999Y-75089001D02*
X119634000Y-73914000D01*
X118458999Y-77018001D02*
X118458999Y-75089001D01*
X117028990Y-78448010D02*
X118458999Y-77018001D01*
X117028990Y-92390990D02*
X117028990Y-78448010D01*
X123698000Y-99060000D02*
X117028990Y-92390990D01*
%TO.N,GPIO4*%
X115729001Y-72738999D02*
X114554000Y-73914000D01*
X135438001Y-72738999D02*
X115729001Y-72738999D01*
X136049001Y-73349999D02*
X135438001Y-72738999D01*
X136049001Y-77018001D02*
X136049001Y-73349999D01*
X138938000Y-79907000D02*
X136049001Y-77018001D01*
X138938000Y-96520000D02*
X138938000Y-79907000D01*
%TO.N,+5V*%
X116288153Y-100330000D02*
X151384000Y-100330000D01*
X114426990Y-98468837D02*
X116288153Y-100330000D01*
X114426990Y-93344990D02*
X114426990Y-98468837D01*
X111252000Y-90170000D02*
X114426990Y-93344990D01*
X109528990Y-76508990D02*
X109474000Y-76454000D01*
X109528990Y-88446990D02*
X109528990Y-76508990D01*
X111252000Y-90170000D02*
X109528990Y-88446990D01*
%TO.N,GPIO8*%
X135033010Y-76613010D02*
X134874000Y-76454000D01*
X135033010Y-95344990D02*
X135033010Y-76613010D01*
X133858000Y-96520000D02*
X135033010Y-95344990D01*
%TD*%
D19*
%TO.N,GND*%
X157353000Y-104521000D02*
X104775000Y-104521000D01*
X104775000Y-96339679D01*
X105117000Y-96339679D01*
X105117000Y-98000322D01*
X105140657Y-98240516D01*
X105234149Y-98548715D01*
X105385970Y-98832752D01*
X105590287Y-99081714D01*
X105839249Y-99286031D01*
X106123286Y-99437852D01*
X106431485Y-99531343D01*
X106752000Y-99562911D01*
X107072516Y-99531343D01*
X107380715Y-99437852D01*
X107664752Y-99286031D01*
X107913714Y-99081714D01*
X108118031Y-98832752D01*
X108269852Y-98548715D01*
X108363343Y-98240516D01*
X108387000Y-98000322D01*
X108387000Y-96550434D01*
X109011876Y-96550434D01*
X109042856Y-96678355D01*
X109171990Y-96972761D01*
X109356078Y-97236317D01*
X109588046Y-97458895D01*
X109858980Y-97631942D01*
X110158468Y-97748807D01*
X110475000Y-97805000D01*
X110797568Y-97805000D01*
X110572273Y-97898320D01*
X110337241Y-98055363D01*
X110137363Y-98255241D01*
X109980320Y-98490273D01*
X109872147Y-98751426D01*
X109817000Y-99028665D01*
X109817000Y-99311335D01*
X109872147Y-99588574D01*
X109980320Y-99849727D01*
X110137363Y-100084759D01*
X110337241Y-100284637D01*
X110572273Y-100441680D01*
X110833426Y-100549853D01*
X111110665Y-100605000D01*
X111393335Y-100605000D01*
X111670574Y-100549853D01*
X111931727Y-100441680D01*
X112166759Y-100284637D01*
X112366637Y-100084759D01*
X112523680Y-99849727D01*
X112631853Y-99588574D01*
X112687000Y-99311335D01*
X112687000Y-99028665D01*
X112631853Y-98751426D01*
X112523680Y-98490273D01*
X112366637Y-98255241D01*
X112166759Y-98055363D01*
X111931727Y-97898320D01*
X111706432Y-97805000D01*
X112029000Y-97805000D01*
X112345532Y-97748807D01*
X112645020Y-97631942D01*
X112915954Y-97458895D01*
X113147922Y-97236317D01*
X113332010Y-96972761D01*
X113461144Y-96678355D01*
X113492124Y-96550434D01*
X113372777Y-96297000D01*
X111379000Y-96297000D01*
X111379000Y-96317000D01*
X111125000Y-96317000D01*
X111125000Y-96297000D01*
X109131223Y-96297000D01*
X109011876Y-96550434D01*
X108387000Y-96550434D01*
X108387000Y-96339678D01*
X108363343Y-96099484D01*
X108269852Y-95791285D01*
X108268934Y-95789566D01*
X109011876Y-95789566D01*
X109131223Y-96043000D01*
X111125000Y-96043000D01*
X111125000Y-94535000D01*
X111379000Y-94535000D01*
X111379000Y-96043000D01*
X113372777Y-96043000D01*
X113492124Y-95789566D01*
X113461144Y-95661645D01*
X113332010Y-95367239D01*
X113147922Y-95103683D01*
X112915954Y-94881105D01*
X112645020Y-94708058D01*
X112345532Y-94591193D01*
X112029000Y-94535000D01*
X111379000Y-94535000D01*
X111125000Y-94535000D01*
X110475000Y-94535000D01*
X110158468Y-94591193D01*
X109858980Y-94708058D01*
X109588046Y-94881105D01*
X109356078Y-95103683D01*
X109171990Y-95367239D01*
X109042856Y-95661645D01*
X109011876Y-95789566D01*
X108268934Y-95789566D01*
X108118031Y-95507248D01*
X107913714Y-95258286D01*
X107664751Y-95053969D01*
X107380714Y-94902148D01*
X107072515Y-94808657D01*
X106752000Y-94777089D01*
X106431484Y-94808657D01*
X106123285Y-94902148D01*
X105839248Y-95053969D01*
X105590286Y-95258286D01*
X105385969Y-95507249D01*
X105234148Y-95791286D01*
X105140657Y-96099485D01*
X105117000Y-96339679D01*
X104775000Y-96339679D01*
X104775000Y-73064000D01*
X105445928Y-73064000D01*
X105445928Y-74764000D01*
X105458188Y-74888482D01*
X105494498Y-75008180D01*
X105553463Y-75118494D01*
X105632815Y-75215185D01*
X105729506Y-75294537D01*
X105839820Y-75353502D01*
X105912380Y-75375513D01*
X105780525Y-75507368D01*
X105618010Y-75750589D01*
X105506068Y-76020842D01*
X105449000Y-76307740D01*
X105449000Y-76600260D01*
X105506068Y-76887158D01*
X105618010Y-77157411D01*
X105780525Y-77400632D01*
X105987368Y-77607475D01*
X106230589Y-77769990D01*
X106500842Y-77881932D01*
X106787740Y-77939000D01*
X107080260Y-77939000D01*
X107367158Y-77881932D01*
X107637411Y-77769990D01*
X107880632Y-77607475D01*
X108087475Y-77400632D01*
X108204000Y-77226240D01*
X108320525Y-77400632D01*
X108527368Y-77607475D01*
X108768991Y-77768922D01*
X108768991Y-81494928D01*
X107604000Y-81494928D01*
X107430746Y-81511992D01*
X107264150Y-81562528D01*
X107110614Y-81644595D01*
X106976038Y-81755038D01*
X106865595Y-81889614D01*
X106783528Y-82043150D01*
X106732992Y-82209746D01*
X106715928Y-82383000D01*
X106715928Y-83733000D01*
X106732992Y-83906254D01*
X106783528Y-84072850D01*
X106865595Y-84226386D01*
X106976038Y-84360962D01*
X107110614Y-84471405D01*
X107264150Y-84553472D01*
X107430746Y-84604008D01*
X107604000Y-84621072D01*
X108768990Y-84621072D01*
X108768990Y-88409668D01*
X108765314Y-88446990D01*
X108768990Y-88484312D01*
X108768990Y-88484322D01*
X108779987Y-88595975D01*
X108813974Y-88708016D01*
X108800815Y-88718815D01*
X108721463Y-88815506D01*
X108662498Y-88925820D01*
X108626188Y-89045518D01*
X108613928Y-89170000D01*
X108613928Y-91170000D01*
X108626188Y-91294482D01*
X108662498Y-91414180D01*
X108721463Y-91524494D01*
X108800815Y-91621185D01*
X108897506Y-91700537D01*
X109007820Y-91759502D01*
X109127518Y-91795812D01*
X109252000Y-91808072D01*
X111815271Y-91808072D01*
X113666990Y-93659792D01*
X113666991Y-98431505D01*
X113663314Y-98468837D01*
X113666991Y-98506170D01*
X113668351Y-98519973D01*
X113677988Y-98617822D01*
X113721444Y-98761083D01*
X113792016Y-98893113D01*
X113850642Y-98964548D01*
X113886990Y-99008838D01*
X113915988Y-99032636D01*
X115724354Y-100841003D01*
X115748152Y-100870001D01*
X115777150Y-100893799D01*
X115863876Y-100964974D01*
X115938759Y-101005000D01*
X115995906Y-101035546D01*
X116139167Y-101079003D01*
X116250820Y-101090000D01*
X116250830Y-101090000D01*
X116288153Y-101093676D01*
X116325476Y-101090000D01*
X149904300Y-101090000D01*
X149912992Y-101178254D01*
X149963528Y-101344850D01*
X150045595Y-101498386D01*
X150156038Y-101632962D01*
X150290614Y-101743405D01*
X150444150Y-101825472D01*
X150610746Y-101876008D01*
X150784000Y-101893072D01*
X151984000Y-101893072D01*
X152157254Y-101876008D01*
X152323850Y-101825472D01*
X152477386Y-101743405D01*
X152611962Y-101632962D01*
X152722405Y-101498386D01*
X152780954Y-101388850D01*
X152830460Y-101449695D01*
X153054513Y-101635157D01*
X153310443Y-101773345D01*
X153527110Y-101846476D01*
X153757000Y-101725155D01*
X153757000Y-100457000D01*
X154011000Y-100457000D01*
X154011000Y-101725155D01*
X154240890Y-101846476D01*
X154457557Y-101773345D01*
X154713487Y-101635157D01*
X154937540Y-101449695D01*
X155121106Y-101224086D01*
X155257131Y-100967000D01*
X155340387Y-100688317D01*
X155208027Y-100457000D01*
X154011000Y-100457000D01*
X153757000Y-100457000D01*
X153737000Y-100457000D01*
X153737000Y-100203000D01*
X153757000Y-100203000D01*
X153757000Y-98934845D01*
X154011000Y-98934845D01*
X154011000Y-100203000D01*
X155208027Y-100203000D01*
X155340387Y-99971683D01*
X155257131Y-99693000D01*
X155121106Y-99435914D01*
X154937540Y-99210305D01*
X154713487Y-99024843D01*
X154457557Y-98886655D01*
X154240890Y-98813524D01*
X154011000Y-98934845D01*
X153757000Y-98934845D01*
X153527110Y-98813524D01*
X153310443Y-98886655D01*
X153054513Y-99024843D01*
X152830460Y-99210305D01*
X152780954Y-99271150D01*
X152722405Y-99161614D01*
X152611962Y-99027038D01*
X152477386Y-98916595D01*
X152323850Y-98834528D01*
X152157254Y-98783992D01*
X151984000Y-98766928D01*
X150784000Y-98766928D01*
X150610746Y-98783992D01*
X150444150Y-98834528D01*
X150290614Y-98916595D01*
X150156038Y-99027038D01*
X150045595Y-99161614D01*
X149963528Y-99315150D01*
X149912992Y-99481746D01*
X149904300Y-99570000D01*
X142874103Y-99570000D01*
X142905932Y-99493158D01*
X142963000Y-99206260D01*
X142963000Y-98913740D01*
X142905932Y-98626842D01*
X142793990Y-98356589D01*
X142631475Y-98113368D01*
X142424632Y-97906525D01*
X142251271Y-97790689D01*
X142326792Y-97548397D01*
X141478000Y-96699605D01*
X140629208Y-97548397D01*
X140704729Y-97790689D01*
X140531368Y-97906525D01*
X140324525Y-98113368D01*
X140208000Y-98287760D01*
X140091475Y-98113368D01*
X139884632Y-97906525D01*
X139710240Y-97790000D01*
X139884632Y-97673475D01*
X140091475Y-97466632D01*
X140207311Y-97293271D01*
X140449603Y-97368792D01*
X141298395Y-96520000D01*
X141657605Y-96520000D01*
X142506397Y-97368792D01*
X142755472Y-97291157D01*
X142881371Y-97027117D01*
X142953339Y-96743589D01*
X142968611Y-96451469D01*
X142926599Y-96161981D01*
X142828919Y-95886253D01*
X142755472Y-95748843D01*
X142506397Y-95671208D01*
X141657605Y-96520000D01*
X141298395Y-96520000D01*
X140449603Y-95671208D01*
X140207311Y-95746729D01*
X140091475Y-95573368D01*
X140009710Y-95491603D01*
X140629208Y-95491603D01*
X141478000Y-96340395D01*
X142326792Y-95491603D01*
X142249157Y-95242528D01*
X141985117Y-95116629D01*
X141701589Y-95044661D01*
X141409469Y-95029389D01*
X141119981Y-95071401D01*
X140844253Y-95169081D01*
X140706843Y-95242528D01*
X140629208Y-95491603D01*
X140009710Y-95491603D01*
X139884632Y-95366525D01*
X139698000Y-95241822D01*
X139698000Y-95023376D01*
X139811103Y-95070225D01*
X140011062Y-95109999D01*
X140214940Y-95109999D01*
X140414899Y-95070225D01*
X140603257Y-94992204D01*
X140772775Y-94878936D01*
X140916938Y-94734773D01*
X141030206Y-94565255D01*
X141108227Y-94376897D01*
X141148001Y-94176938D01*
X141148001Y-93973060D01*
X141108227Y-93773101D01*
X141030206Y-93584743D01*
X140916938Y-93415225D01*
X140873001Y-93371288D01*
X140873001Y-82383000D01*
X141259928Y-82383000D01*
X141259928Y-83733000D01*
X141276992Y-83906254D01*
X141327528Y-84072850D01*
X141409595Y-84226386D01*
X141520038Y-84360962D01*
X141654614Y-84471405D01*
X141808150Y-84553472D01*
X141974746Y-84604008D01*
X142148000Y-84621072D01*
X143348000Y-84621072D01*
X143521254Y-84604008D01*
X143687850Y-84553472D01*
X143841386Y-84471405D01*
X143975962Y-84360962D01*
X144086405Y-84226386D01*
X144144954Y-84116850D01*
X144194460Y-84177695D01*
X144418513Y-84363157D01*
X144674443Y-84501345D01*
X144891110Y-84574476D01*
X145121000Y-84453155D01*
X145121000Y-83185000D01*
X145375000Y-83185000D01*
X145375000Y-84453155D01*
X145604890Y-84574476D01*
X145821557Y-84501345D01*
X146077487Y-84363157D01*
X146301540Y-84177695D01*
X146485106Y-83952086D01*
X146621131Y-83695000D01*
X146704387Y-83416317D01*
X146572027Y-83185000D01*
X145375000Y-83185000D01*
X145121000Y-83185000D01*
X145101000Y-83185000D01*
X145101000Y-82931000D01*
X145121000Y-82931000D01*
X145121000Y-81662845D01*
X145375000Y-81662845D01*
X145375000Y-82931000D01*
X146572027Y-82931000D01*
X146704387Y-82699683D01*
X146621131Y-82421000D01*
X146485106Y-82163914D01*
X146301540Y-81938305D01*
X146077487Y-81752843D01*
X145821557Y-81614655D01*
X145604890Y-81541524D01*
X145375000Y-81662845D01*
X145121000Y-81662845D01*
X144891110Y-81541524D01*
X144674443Y-81614655D01*
X144418513Y-81752843D01*
X144194460Y-81938305D01*
X144144954Y-81999150D01*
X144086405Y-81889614D01*
X143975962Y-81755038D01*
X143841386Y-81644595D01*
X143687850Y-81562528D01*
X143521254Y-81511992D01*
X143348000Y-81494928D01*
X142148000Y-81494928D01*
X141974746Y-81511992D01*
X141808150Y-81562528D01*
X141654614Y-81644595D01*
X141520038Y-81755038D01*
X141409595Y-81889614D01*
X141327528Y-82043150D01*
X141276992Y-82209746D01*
X141259928Y-82383000D01*
X140873001Y-82383000D01*
X140873001Y-79190324D01*
X140876677Y-79153001D01*
X140873001Y-79115678D01*
X140873001Y-79115668D01*
X140862004Y-79004015D01*
X140818547Y-78860754D01*
X140747975Y-78728725D01*
X140653002Y-78613000D01*
X140624005Y-78589203D01*
X139973802Y-77939000D01*
X140100260Y-77939000D01*
X140387158Y-77881932D01*
X140657411Y-77769990D01*
X140900632Y-77607475D01*
X141107475Y-77400632D01*
X141229195Y-77218466D01*
X141298822Y-77335355D01*
X141493731Y-77551588D01*
X141727080Y-77725641D01*
X141989901Y-77850825D01*
X142137110Y-77895476D01*
X142367000Y-77774155D01*
X142367000Y-76581000D01*
X142347000Y-76581000D01*
X142347000Y-76327000D01*
X142367000Y-76327000D01*
X142367000Y-76307000D01*
X142621000Y-76307000D01*
X142621000Y-76327000D01*
X142641000Y-76327000D01*
X142641000Y-76581000D01*
X142621000Y-76581000D01*
X142621000Y-77774155D01*
X142850890Y-77895476D01*
X142998099Y-77850825D01*
X143260920Y-77725641D01*
X143494269Y-77551588D01*
X143689178Y-77335355D01*
X143758805Y-77218466D01*
X143880525Y-77400632D01*
X144087368Y-77607475D01*
X144330589Y-77769990D01*
X144600842Y-77881932D01*
X144887740Y-77939000D01*
X145180260Y-77939000D01*
X145467158Y-77881932D01*
X145737411Y-77769990D01*
X145980632Y-77607475D01*
X146187475Y-77400632D01*
X146309195Y-77218466D01*
X146378822Y-77335355D01*
X146573731Y-77551588D01*
X146807080Y-77725641D01*
X147069901Y-77850825D01*
X147217110Y-77895476D01*
X147446998Y-77774156D01*
X147446998Y-77939000D01*
X147554199Y-77939000D01*
X147316998Y-78176201D01*
X147288000Y-78199999D01*
X147264202Y-78228997D01*
X147264201Y-78228998D01*
X147193026Y-78315724D01*
X147122454Y-78447754D01*
X147101138Y-78518027D01*
X147078998Y-78591014D01*
X147073385Y-78648003D01*
X147064324Y-78740000D01*
X147068001Y-78777332D01*
X147068000Y-91752289D01*
X147024063Y-91796226D01*
X146910795Y-91965744D01*
X146832774Y-92154102D01*
X146793000Y-92354061D01*
X146793000Y-92557939D01*
X146832774Y-92757898D01*
X146910795Y-92946256D01*
X147024063Y-93115774D01*
X147168226Y-93259937D01*
X147337744Y-93373205D01*
X147526102Y-93451226D01*
X147726061Y-93491000D01*
X147929939Y-93491000D01*
X148129898Y-93451226D01*
X148318256Y-93373205D01*
X148487774Y-93259937D01*
X148631937Y-93115774D01*
X148745205Y-92946256D01*
X148823226Y-92757898D01*
X148863000Y-92557939D01*
X148863000Y-92354061D01*
X148823226Y-92154102D01*
X148745205Y-91965744D01*
X148631937Y-91796226D01*
X148588000Y-91752289D01*
X148588000Y-82383000D01*
X150149928Y-82383000D01*
X150149928Y-83733000D01*
X150166992Y-83906254D01*
X150217528Y-84072850D01*
X150299595Y-84226386D01*
X150410038Y-84360962D01*
X150544614Y-84471405D01*
X150698150Y-84553472D01*
X150864746Y-84604008D01*
X151038000Y-84621072D01*
X152238000Y-84621072D01*
X152411254Y-84604008D01*
X152577850Y-84553472D01*
X152731386Y-84471405D01*
X152865962Y-84360962D01*
X152976405Y-84226386D01*
X153034954Y-84116850D01*
X153084460Y-84177695D01*
X153308513Y-84363157D01*
X153564443Y-84501345D01*
X153781110Y-84574476D01*
X154011000Y-84453155D01*
X154011000Y-83185000D01*
X154265000Y-83185000D01*
X154265000Y-84453155D01*
X154494890Y-84574476D01*
X154711557Y-84501345D01*
X154967487Y-84363157D01*
X155191540Y-84177695D01*
X155375106Y-83952086D01*
X155511131Y-83695000D01*
X155594387Y-83416317D01*
X155462027Y-83185000D01*
X154265000Y-83185000D01*
X154011000Y-83185000D01*
X153991000Y-83185000D01*
X153991000Y-82931000D01*
X154011000Y-82931000D01*
X154011000Y-81662845D01*
X154265000Y-81662845D01*
X154265000Y-82931000D01*
X155462027Y-82931000D01*
X155594387Y-82699683D01*
X155511131Y-82421000D01*
X155375106Y-82163914D01*
X155191540Y-81938305D01*
X154967487Y-81752843D01*
X154711557Y-81614655D01*
X154494890Y-81541524D01*
X154265000Y-81662845D01*
X154011000Y-81662845D01*
X153781110Y-81541524D01*
X153564443Y-81614655D01*
X153308513Y-81752843D01*
X153084460Y-81938305D01*
X153034954Y-81999150D01*
X152976405Y-81889614D01*
X152865962Y-81755038D01*
X152731386Y-81644595D01*
X152577850Y-81562528D01*
X152411254Y-81511992D01*
X152238000Y-81494928D01*
X151038000Y-81494928D01*
X150864746Y-81511992D01*
X150698150Y-81562528D01*
X150544614Y-81644595D01*
X150410038Y-81755038D01*
X150299595Y-81889614D01*
X150217528Y-82043150D01*
X150166992Y-82209746D01*
X150149928Y-82383000D01*
X148588000Y-82383000D01*
X148588000Y-79054801D01*
X149747592Y-77895210D01*
X149967740Y-77939000D01*
X150260260Y-77939000D01*
X150547158Y-77881932D01*
X150817411Y-77769990D01*
X151060632Y-77607475D01*
X151267475Y-77400632D01*
X151384000Y-77226240D01*
X151500525Y-77400632D01*
X151707368Y-77607475D01*
X151950589Y-77769990D01*
X152220842Y-77881932D01*
X152507740Y-77939000D01*
X152800260Y-77939000D01*
X153087158Y-77881932D01*
X153357411Y-77769990D01*
X153600632Y-77607475D01*
X153807475Y-77400632D01*
X153924000Y-77226240D01*
X154040525Y-77400632D01*
X154247368Y-77607475D01*
X154490589Y-77769990D01*
X154760842Y-77881932D01*
X155047740Y-77939000D01*
X155340260Y-77939000D01*
X155627158Y-77881932D01*
X155897411Y-77769990D01*
X156140632Y-77607475D01*
X156347475Y-77400632D01*
X156509990Y-77157411D01*
X156621932Y-76887158D01*
X156679000Y-76600260D01*
X156679000Y-76307740D01*
X156621932Y-76020842D01*
X156509990Y-75750589D01*
X156347475Y-75507368D01*
X156140632Y-75300525D01*
X155964594Y-75182900D01*
X156194269Y-75011588D01*
X156389178Y-74795355D01*
X156538157Y-74545252D01*
X156635481Y-74270891D01*
X156514814Y-74041000D01*
X155321000Y-74041000D01*
X155321000Y-74061000D01*
X155067000Y-74061000D01*
X155067000Y-74041000D01*
X155047000Y-74041000D01*
X155047000Y-73787000D01*
X155067000Y-73787000D01*
X155067000Y-72593845D01*
X155321000Y-72593845D01*
X155321000Y-73787000D01*
X156514814Y-73787000D01*
X156635481Y-73557109D01*
X156538157Y-73282748D01*
X156389178Y-73032645D01*
X156194269Y-72816412D01*
X155960920Y-72642359D01*
X155698099Y-72517175D01*
X155550890Y-72472524D01*
X155321000Y-72593845D01*
X155067000Y-72593845D01*
X154837110Y-72472524D01*
X154689901Y-72517175D01*
X154427080Y-72642359D01*
X154193731Y-72816412D01*
X153998822Y-73032645D01*
X153929195Y-73149534D01*
X153807475Y-72967368D01*
X153600632Y-72760525D01*
X153357411Y-72598010D01*
X153087158Y-72486068D01*
X152800260Y-72429000D01*
X152507740Y-72429000D01*
X152220842Y-72486068D01*
X151950589Y-72598010D01*
X151707368Y-72760525D01*
X151500525Y-72967368D01*
X151384000Y-73141760D01*
X151267475Y-72967368D01*
X151060632Y-72760525D01*
X150817411Y-72598010D01*
X150547158Y-72486068D01*
X150260260Y-72429000D01*
X149967740Y-72429000D01*
X149680842Y-72486068D01*
X149410589Y-72598010D01*
X149167368Y-72760525D01*
X148960525Y-72967368D01*
X148844000Y-73141760D01*
X148727475Y-72967368D01*
X148520632Y-72760525D01*
X148277411Y-72598010D01*
X148007158Y-72486068D01*
X147720260Y-72429000D01*
X147427740Y-72429000D01*
X147140842Y-72486068D01*
X146870589Y-72598010D01*
X146627368Y-72760525D01*
X146420525Y-72967368D01*
X146304000Y-73141760D01*
X146187475Y-72967368D01*
X145980632Y-72760525D01*
X145737411Y-72598010D01*
X145467158Y-72486068D01*
X145180260Y-72429000D01*
X144887740Y-72429000D01*
X144600842Y-72486068D01*
X144330589Y-72598010D01*
X144087368Y-72760525D01*
X143880525Y-72967368D01*
X143764000Y-73141760D01*
X143647475Y-72967368D01*
X143440632Y-72760525D01*
X143197411Y-72598010D01*
X142927158Y-72486068D01*
X142640260Y-72429000D01*
X142347740Y-72429000D01*
X142127592Y-72472791D01*
X141432794Y-71777993D01*
X141408991Y-71748989D01*
X141293266Y-71654016D01*
X141161237Y-71583444D01*
X141017976Y-71539987D01*
X140906323Y-71528990D01*
X140906312Y-71528990D01*
X140868990Y-71525314D01*
X140831668Y-71528990D01*
X114477330Y-71528990D01*
X114440007Y-71525314D01*
X114402684Y-71528990D01*
X114402675Y-71528990D01*
X114291022Y-71539987D01*
X114147761Y-71583444D01*
X114015732Y-71654016D01*
X113900007Y-71748989D01*
X113876209Y-71777987D01*
X112920492Y-72733705D01*
X112717411Y-72598010D01*
X112447158Y-72486068D01*
X112160260Y-72429000D01*
X111867740Y-72429000D01*
X111580842Y-72486068D01*
X111310589Y-72598010D01*
X111067368Y-72760525D01*
X110860525Y-72967368D01*
X110744000Y-73141760D01*
X110627475Y-72967368D01*
X110420632Y-72760525D01*
X110177411Y-72598010D01*
X109907158Y-72486068D01*
X109620260Y-72429000D01*
X109327740Y-72429000D01*
X109040842Y-72486068D01*
X108770589Y-72598010D01*
X108527368Y-72760525D01*
X108395513Y-72892380D01*
X108373502Y-72819820D01*
X108314537Y-72709506D01*
X108235185Y-72612815D01*
X108138494Y-72533463D01*
X108028180Y-72474498D01*
X107908482Y-72438188D01*
X107784000Y-72425928D01*
X106084000Y-72425928D01*
X105959518Y-72438188D01*
X105839820Y-72474498D01*
X105729506Y-72533463D01*
X105632815Y-72612815D01*
X105553463Y-72709506D01*
X105494498Y-72819820D01*
X105458188Y-72939518D01*
X105445928Y-73064000D01*
X104775000Y-73064000D01*
X104775000Y-70739000D01*
X157353000Y-70739000D01*
X157353000Y-104521000D01*
%TA.AperFunction,Conductor*%
D20*
G36*
X157353000Y-104521000D02*
G01*
X104775000Y-104521000D01*
X104775000Y-96339679D01*
X105117000Y-96339679D01*
X105117000Y-98000322D01*
X105140657Y-98240516D01*
X105234149Y-98548715D01*
X105385970Y-98832752D01*
X105590287Y-99081714D01*
X105839249Y-99286031D01*
X106123286Y-99437852D01*
X106431485Y-99531343D01*
X106752000Y-99562911D01*
X107072516Y-99531343D01*
X107380715Y-99437852D01*
X107664752Y-99286031D01*
X107913714Y-99081714D01*
X108118031Y-98832752D01*
X108269852Y-98548715D01*
X108363343Y-98240516D01*
X108387000Y-98000322D01*
X108387000Y-96550434D01*
X109011876Y-96550434D01*
X109042856Y-96678355D01*
X109171990Y-96972761D01*
X109356078Y-97236317D01*
X109588046Y-97458895D01*
X109858980Y-97631942D01*
X110158468Y-97748807D01*
X110475000Y-97805000D01*
X110797568Y-97805000D01*
X110572273Y-97898320D01*
X110337241Y-98055363D01*
X110137363Y-98255241D01*
X109980320Y-98490273D01*
X109872147Y-98751426D01*
X109817000Y-99028665D01*
X109817000Y-99311335D01*
X109872147Y-99588574D01*
X109980320Y-99849727D01*
X110137363Y-100084759D01*
X110337241Y-100284637D01*
X110572273Y-100441680D01*
X110833426Y-100549853D01*
X111110665Y-100605000D01*
X111393335Y-100605000D01*
X111670574Y-100549853D01*
X111931727Y-100441680D01*
X112166759Y-100284637D01*
X112366637Y-100084759D01*
X112523680Y-99849727D01*
X112631853Y-99588574D01*
X112687000Y-99311335D01*
X112687000Y-99028665D01*
X112631853Y-98751426D01*
X112523680Y-98490273D01*
X112366637Y-98255241D01*
X112166759Y-98055363D01*
X111931727Y-97898320D01*
X111706432Y-97805000D01*
X112029000Y-97805000D01*
X112345532Y-97748807D01*
X112645020Y-97631942D01*
X112915954Y-97458895D01*
X113147922Y-97236317D01*
X113332010Y-96972761D01*
X113461144Y-96678355D01*
X113492124Y-96550434D01*
X113372777Y-96297000D01*
X111379000Y-96297000D01*
X111379000Y-96317000D01*
X111125000Y-96317000D01*
X111125000Y-96297000D01*
X109131223Y-96297000D01*
X109011876Y-96550434D01*
X108387000Y-96550434D01*
X108387000Y-96339678D01*
X108363343Y-96099484D01*
X108269852Y-95791285D01*
X108268934Y-95789566D01*
X109011876Y-95789566D01*
X109131223Y-96043000D01*
X111125000Y-96043000D01*
X111125000Y-94535000D01*
X111379000Y-94535000D01*
X111379000Y-96043000D01*
X113372777Y-96043000D01*
X113492124Y-95789566D01*
X113461144Y-95661645D01*
X113332010Y-95367239D01*
X113147922Y-95103683D01*
X112915954Y-94881105D01*
X112645020Y-94708058D01*
X112345532Y-94591193D01*
X112029000Y-94535000D01*
X111379000Y-94535000D01*
X111125000Y-94535000D01*
X110475000Y-94535000D01*
X110158468Y-94591193D01*
X109858980Y-94708058D01*
X109588046Y-94881105D01*
X109356078Y-95103683D01*
X109171990Y-95367239D01*
X109042856Y-95661645D01*
X109011876Y-95789566D01*
X108268934Y-95789566D01*
X108118031Y-95507248D01*
X107913714Y-95258286D01*
X107664751Y-95053969D01*
X107380714Y-94902148D01*
X107072515Y-94808657D01*
X106752000Y-94777089D01*
X106431484Y-94808657D01*
X106123285Y-94902148D01*
X105839248Y-95053969D01*
X105590286Y-95258286D01*
X105385969Y-95507249D01*
X105234148Y-95791286D01*
X105140657Y-96099485D01*
X105117000Y-96339679D01*
X104775000Y-96339679D01*
X104775000Y-73064000D01*
X105445928Y-73064000D01*
X105445928Y-74764000D01*
X105458188Y-74888482D01*
X105494498Y-75008180D01*
X105553463Y-75118494D01*
X105632815Y-75215185D01*
X105729506Y-75294537D01*
X105839820Y-75353502D01*
X105912380Y-75375513D01*
X105780525Y-75507368D01*
X105618010Y-75750589D01*
X105506068Y-76020842D01*
X105449000Y-76307740D01*
X105449000Y-76600260D01*
X105506068Y-76887158D01*
X105618010Y-77157411D01*
X105780525Y-77400632D01*
X105987368Y-77607475D01*
X106230589Y-77769990D01*
X106500842Y-77881932D01*
X106787740Y-77939000D01*
X107080260Y-77939000D01*
X107367158Y-77881932D01*
X107637411Y-77769990D01*
X107880632Y-77607475D01*
X108087475Y-77400632D01*
X108204000Y-77226240D01*
X108320525Y-77400632D01*
X108527368Y-77607475D01*
X108768991Y-77768922D01*
X108768991Y-81494928D01*
X107604000Y-81494928D01*
X107430746Y-81511992D01*
X107264150Y-81562528D01*
X107110614Y-81644595D01*
X106976038Y-81755038D01*
X106865595Y-81889614D01*
X106783528Y-82043150D01*
X106732992Y-82209746D01*
X106715928Y-82383000D01*
X106715928Y-83733000D01*
X106732992Y-83906254D01*
X106783528Y-84072850D01*
X106865595Y-84226386D01*
X106976038Y-84360962D01*
X107110614Y-84471405D01*
X107264150Y-84553472D01*
X107430746Y-84604008D01*
X107604000Y-84621072D01*
X108768990Y-84621072D01*
X108768990Y-88409668D01*
X108765314Y-88446990D01*
X108768990Y-88484312D01*
X108768990Y-88484322D01*
X108779987Y-88595975D01*
X108813974Y-88708016D01*
X108800815Y-88718815D01*
X108721463Y-88815506D01*
X108662498Y-88925820D01*
X108626188Y-89045518D01*
X108613928Y-89170000D01*
X108613928Y-91170000D01*
X108626188Y-91294482D01*
X108662498Y-91414180D01*
X108721463Y-91524494D01*
X108800815Y-91621185D01*
X108897506Y-91700537D01*
X109007820Y-91759502D01*
X109127518Y-91795812D01*
X109252000Y-91808072D01*
X111815271Y-91808072D01*
X113666990Y-93659792D01*
X113666991Y-98431505D01*
X113663314Y-98468837D01*
X113666991Y-98506170D01*
X113668351Y-98519973D01*
X113677988Y-98617822D01*
X113721444Y-98761083D01*
X113792016Y-98893113D01*
X113850642Y-98964548D01*
X113886990Y-99008838D01*
X113915988Y-99032636D01*
X115724354Y-100841003D01*
X115748152Y-100870001D01*
X115777150Y-100893799D01*
X115863876Y-100964974D01*
X115938759Y-101005000D01*
X115995906Y-101035546D01*
X116139167Y-101079003D01*
X116250820Y-101090000D01*
X116250830Y-101090000D01*
X116288153Y-101093676D01*
X116325476Y-101090000D01*
X149904300Y-101090000D01*
X149912992Y-101178254D01*
X149963528Y-101344850D01*
X150045595Y-101498386D01*
X150156038Y-101632962D01*
X150290614Y-101743405D01*
X150444150Y-101825472D01*
X150610746Y-101876008D01*
X150784000Y-101893072D01*
X151984000Y-101893072D01*
X152157254Y-101876008D01*
X152323850Y-101825472D01*
X152477386Y-101743405D01*
X152611962Y-101632962D01*
X152722405Y-101498386D01*
X152780954Y-101388850D01*
X152830460Y-101449695D01*
X153054513Y-101635157D01*
X153310443Y-101773345D01*
X153527110Y-101846476D01*
X153757000Y-101725155D01*
X153757000Y-100457000D01*
X154011000Y-100457000D01*
X154011000Y-101725155D01*
X154240890Y-101846476D01*
X154457557Y-101773345D01*
X154713487Y-101635157D01*
X154937540Y-101449695D01*
X155121106Y-101224086D01*
X155257131Y-100967000D01*
X155340387Y-100688317D01*
X155208027Y-100457000D01*
X154011000Y-100457000D01*
X153757000Y-100457000D01*
X153737000Y-100457000D01*
X153737000Y-100203000D01*
X153757000Y-100203000D01*
X153757000Y-98934845D01*
X154011000Y-98934845D01*
X154011000Y-100203000D01*
X155208027Y-100203000D01*
X155340387Y-99971683D01*
X155257131Y-99693000D01*
X155121106Y-99435914D01*
X154937540Y-99210305D01*
X154713487Y-99024843D01*
X154457557Y-98886655D01*
X154240890Y-98813524D01*
X154011000Y-98934845D01*
X153757000Y-98934845D01*
X153527110Y-98813524D01*
X153310443Y-98886655D01*
X153054513Y-99024843D01*
X152830460Y-99210305D01*
X152780954Y-99271150D01*
X152722405Y-99161614D01*
X152611962Y-99027038D01*
X152477386Y-98916595D01*
X152323850Y-98834528D01*
X152157254Y-98783992D01*
X151984000Y-98766928D01*
X150784000Y-98766928D01*
X150610746Y-98783992D01*
X150444150Y-98834528D01*
X150290614Y-98916595D01*
X150156038Y-99027038D01*
X150045595Y-99161614D01*
X149963528Y-99315150D01*
X149912992Y-99481746D01*
X149904300Y-99570000D01*
X142874103Y-99570000D01*
X142905932Y-99493158D01*
X142963000Y-99206260D01*
X142963000Y-98913740D01*
X142905932Y-98626842D01*
X142793990Y-98356589D01*
X142631475Y-98113368D01*
X142424632Y-97906525D01*
X142251271Y-97790689D01*
X142326792Y-97548397D01*
X141478000Y-96699605D01*
X140629208Y-97548397D01*
X140704729Y-97790689D01*
X140531368Y-97906525D01*
X140324525Y-98113368D01*
X140208000Y-98287760D01*
X140091475Y-98113368D01*
X139884632Y-97906525D01*
X139710240Y-97790000D01*
X139884632Y-97673475D01*
X140091475Y-97466632D01*
X140207311Y-97293271D01*
X140449603Y-97368792D01*
X141298395Y-96520000D01*
X141657605Y-96520000D01*
X142506397Y-97368792D01*
X142755472Y-97291157D01*
X142881371Y-97027117D01*
X142953339Y-96743589D01*
X142968611Y-96451469D01*
X142926599Y-96161981D01*
X142828919Y-95886253D01*
X142755472Y-95748843D01*
X142506397Y-95671208D01*
X141657605Y-96520000D01*
X141298395Y-96520000D01*
X140449603Y-95671208D01*
X140207311Y-95746729D01*
X140091475Y-95573368D01*
X140009710Y-95491603D01*
X140629208Y-95491603D01*
X141478000Y-96340395D01*
X142326792Y-95491603D01*
X142249157Y-95242528D01*
X141985117Y-95116629D01*
X141701589Y-95044661D01*
X141409469Y-95029389D01*
X141119981Y-95071401D01*
X140844253Y-95169081D01*
X140706843Y-95242528D01*
X140629208Y-95491603D01*
X140009710Y-95491603D01*
X139884632Y-95366525D01*
X139698000Y-95241822D01*
X139698000Y-95023376D01*
X139811103Y-95070225D01*
X140011062Y-95109999D01*
X140214940Y-95109999D01*
X140414899Y-95070225D01*
X140603257Y-94992204D01*
X140772775Y-94878936D01*
X140916938Y-94734773D01*
X141030206Y-94565255D01*
X141108227Y-94376897D01*
X141148001Y-94176938D01*
X141148001Y-93973060D01*
X141108227Y-93773101D01*
X141030206Y-93584743D01*
X140916938Y-93415225D01*
X140873001Y-93371288D01*
X140873001Y-82383000D01*
X141259928Y-82383000D01*
X141259928Y-83733000D01*
X141276992Y-83906254D01*
X141327528Y-84072850D01*
X141409595Y-84226386D01*
X141520038Y-84360962D01*
X141654614Y-84471405D01*
X141808150Y-84553472D01*
X141974746Y-84604008D01*
X142148000Y-84621072D01*
X143348000Y-84621072D01*
X143521254Y-84604008D01*
X143687850Y-84553472D01*
X143841386Y-84471405D01*
X143975962Y-84360962D01*
X144086405Y-84226386D01*
X144144954Y-84116850D01*
X144194460Y-84177695D01*
X144418513Y-84363157D01*
X144674443Y-84501345D01*
X144891110Y-84574476D01*
X145121000Y-84453155D01*
X145121000Y-83185000D01*
X145375000Y-83185000D01*
X145375000Y-84453155D01*
X145604890Y-84574476D01*
X145821557Y-84501345D01*
X146077487Y-84363157D01*
X146301540Y-84177695D01*
X146485106Y-83952086D01*
X146621131Y-83695000D01*
X146704387Y-83416317D01*
X146572027Y-83185000D01*
X145375000Y-83185000D01*
X145121000Y-83185000D01*
X145101000Y-83185000D01*
X145101000Y-82931000D01*
X145121000Y-82931000D01*
X145121000Y-81662845D01*
X145375000Y-81662845D01*
X145375000Y-82931000D01*
X146572027Y-82931000D01*
X146704387Y-82699683D01*
X146621131Y-82421000D01*
X146485106Y-82163914D01*
X146301540Y-81938305D01*
X146077487Y-81752843D01*
X145821557Y-81614655D01*
X145604890Y-81541524D01*
X145375000Y-81662845D01*
X145121000Y-81662845D01*
X144891110Y-81541524D01*
X144674443Y-81614655D01*
X144418513Y-81752843D01*
X144194460Y-81938305D01*
X144144954Y-81999150D01*
X144086405Y-81889614D01*
X143975962Y-81755038D01*
X143841386Y-81644595D01*
X143687850Y-81562528D01*
X143521254Y-81511992D01*
X143348000Y-81494928D01*
X142148000Y-81494928D01*
X141974746Y-81511992D01*
X141808150Y-81562528D01*
X141654614Y-81644595D01*
X141520038Y-81755038D01*
X141409595Y-81889614D01*
X141327528Y-82043150D01*
X141276992Y-82209746D01*
X141259928Y-82383000D01*
X140873001Y-82383000D01*
X140873001Y-79190324D01*
X140876677Y-79153001D01*
X140873001Y-79115678D01*
X140873001Y-79115668D01*
X140862004Y-79004015D01*
X140818547Y-78860754D01*
X140747975Y-78728725D01*
X140653002Y-78613000D01*
X140624005Y-78589203D01*
X139973802Y-77939000D01*
X140100260Y-77939000D01*
X140387158Y-77881932D01*
X140657411Y-77769990D01*
X140900632Y-77607475D01*
X141107475Y-77400632D01*
X141229195Y-77218466D01*
X141298822Y-77335355D01*
X141493731Y-77551588D01*
X141727080Y-77725641D01*
X141989901Y-77850825D01*
X142137110Y-77895476D01*
X142367000Y-77774155D01*
X142367000Y-76581000D01*
X142347000Y-76581000D01*
X142347000Y-76327000D01*
X142367000Y-76327000D01*
X142367000Y-76307000D01*
X142621000Y-76307000D01*
X142621000Y-76327000D01*
X142641000Y-76327000D01*
X142641000Y-76581000D01*
X142621000Y-76581000D01*
X142621000Y-77774155D01*
X142850890Y-77895476D01*
X142998099Y-77850825D01*
X143260920Y-77725641D01*
X143494269Y-77551588D01*
X143689178Y-77335355D01*
X143758805Y-77218466D01*
X143880525Y-77400632D01*
X144087368Y-77607475D01*
X144330589Y-77769990D01*
X144600842Y-77881932D01*
X144887740Y-77939000D01*
X145180260Y-77939000D01*
X145467158Y-77881932D01*
X145737411Y-77769990D01*
X145980632Y-77607475D01*
X146187475Y-77400632D01*
X146309195Y-77218466D01*
X146378822Y-77335355D01*
X146573731Y-77551588D01*
X146807080Y-77725641D01*
X147069901Y-77850825D01*
X147217110Y-77895476D01*
X147446998Y-77774156D01*
X147446998Y-77939000D01*
X147554199Y-77939000D01*
X147316998Y-78176201D01*
X147288000Y-78199999D01*
X147264202Y-78228997D01*
X147264201Y-78228998D01*
X147193026Y-78315724D01*
X147122454Y-78447754D01*
X147101138Y-78518027D01*
X147078998Y-78591014D01*
X147073385Y-78648003D01*
X147064324Y-78740000D01*
X147068001Y-78777332D01*
X147068000Y-91752289D01*
X147024063Y-91796226D01*
X146910795Y-91965744D01*
X146832774Y-92154102D01*
X146793000Y-92354061D01*
X146793000Y-92557939D01*
X146832774Y-92757898D01*
X146910795Y-92946256D01*
X147024063Y-93115774D01*
X147168226Y-93259937D01*
X147337744Y-93373205D01*
X147526102Y-93451226D01*
X147726061Y-93491000D01*
X147929939Y-93491000D01*
X148129898Y-93451226D01*
X148318256Y-93373205D01*
X148487774Y-93259937D01*
X148631937Y-93115774D01*
X148745205Y-92946256D01*
X148823226Y-92757898D01*
X148863000Y-92557939D01*
X148863000Y-92354061D01*
X148823226Y-92154102D01*
X148745205Y-91965744D01*
X148631937Y-91796226D01*
X148588000Y-91752289D01*
X148588000Y-82383000D01*
X150149928Y-82383000D01*
X150149928Y-83733000D01*
X150166992Y-83906254D01*
X150217528Y-84072850D01*
X150299595Y-84226386D01*
X150410038Y-84360962D01*
X150544614Y-84471405D01*
X150698150Y-84553472D01*
X150864746Y-84604008D01*
X151038000Y-84621072D01*
X152238000Y-84621072D01*
X152411254Y-84604008D01*
X152577850Y-84553472D01*
X152731386Y-84471405D01*
X152865962Y-84360962D01*
X152976405Y-84226386D01*
X153034954Y-84116850D01*
X153084460Y-84177695D01*
X153308513Y-84363157D01*
X153564443Y-84501345D01*
X153781110Y-84574476D01*
X154011000Y-84453155D01*
X154011000Y-83185000D01*
X154265000Y-83185000D01*
X154265000Y-84453155D01*
X154494890Y-84574476D01*
X154711557Y-84501345D01*
X154967487Y-84363157D01*
X155191540Y-84177695D01*
X155375106Y-83952086D01*
X155511131Y-83695000D01*
X155594387Y-83416317D01*
X155462027Y-83185000D01*
X154265000Y-83185000D01*
X154011000Y-83185000D01*
X153991000Y-83185000D01*
X153991000Y-82931000D01*
X154011000Y-82931000D01*
X154011000Y-81662845D01*
X154265000Y-81662845D01*
X154265000Y-82931000D01*
X155462027Y-82931000D01*
X155594387Y-82699683D01*
X155511131Y-82421000D01*
X155375106Y-82163914D01*
X155191540Y-81938305D01*
X154967487Y-81752843D01*
X154711557Y-81614655D01*
X154494890Y-81541524D01*
X154265000Y-81662845D01*
X154011000Y-81662845D01*
X153781110Y-81541524D01*
X153564443Y-81614655D01*
X153308513Y-81752843D01*
X153084460Y-81938305D01*
X153034954Y-81999150D01*
X152976405Y-81889614D01*
X152865962Y-81755038D01*
X152731386Y-81644595D01*
X152577850Y-81562528D01*
X152411254Y-81511992D01*
X152238000Y-81494928D01*
X151038000Y-81494928D01*
X150864746Y-81511992D01*
X150698150Y-81562528D01*
X150544614Y-81644595D01*
X150410038Y-81755038D01*
X150299595Y-81889614D01*
X150217528Y-82043150D01*
X150166992Y-82209746D01*
X150149928Y-82383000D01*
X148588000Y-82383000D01*
X148588000Y-79054801D01*
X149747592Y-77895210D01*
X149967740Y-77939000D01*
X150260260Y-77939000D01*
X150547158Y-77881932D01*
X150817411Y-77769990D01*
X151060632Y-77607475D01*
X151267475Y-77400632D01*
X151384000Y-77226240D01*
X151500525Y-77400632D01*
X151707368Y-77607475D01*
X151950589Y-77769990D01*
X152220842Y-77881932D01*
X152507740Y-77939000D01*
X152800260Y-77939000D01*
X153087158Y-77881932D01*
X153357411Y-77769990D01*
X153600632Y-77607475D01*
X153807475Y-77400632D01*
X153924000Y-77226240D01*
X154040525Y-77400632D01*
X154247368Y-77607475D01*
X154490589Y-77769990D01*
X154760842Y-77881932D01*
X155047740Y-77939000D01*
X155340260Y-77939000D01*
X155627158Y-77881932D01*
X155897411Y-77769990D01*
X156140632Y-77607475D01*
X156347475Y-77400632D01*
X156509990Y-77157411D01*
X156621932Y-76887158D01*
X156679000Y-76600260D01*
X156679000Y-76307740D01*
X156621932Y-76020842D01*
X156509990Y-75750589D01*
X156347475Y-75507368D01*
X156140632Y-75300525D01*
X155964594Y-75182900D01*
X156194269Y-75011588D01*
X156389178Y-74795355D01*
X156538157Y-74545252D01*
X156635481Y-74270891D01*
X156514814Y-74041000D01*
X155321000Y-74041000D01*
X155321000Y-74061000D01*
X155067000Y-74061000D01*
X155067000Y-74041000D01*
X155047000Y-74041000D01*
X155047000Y-73787000D01*
X155067000Y-73787000D01*
X155067000Y-72593845D01*
X155321000Y-72593845D01*
X155321000Y-73787000D01*
X156514814Y-73787000D01*
X156635481Y-73557109D01*
X156538157Y-73282748D01*
X156389178Y-73032645D01*
X156194269Y-72816412D01*
X155960920Y-72642359D01*
X155698099Y-72517175D01*
X155550890Y-72472524D01*
X155321000Y-72593845D01*
X155067000Y-72593845D01*
X154837110Y-72472524D01*
X154689901Y-72517175D01*
X154427080Y-72642359D01*
X154193731Y-72816412D01*
X153998822Y-73032645D01*
X153929195Y-73149534D01*
X153807475Y-72967368D01*
X153600632Y-72760525D01*
X153357411Y-72598010D01*
X153087158Y-72486068D01*
X152800260Y-72429000D01*
X152507740Y-72429000D01*
X152220842Y-72486068D01*
X151950589Y-72598010D01*
X151707368Y-72760525D01*
X151500525Y-72967368D01*
X151384000Y-73141760D01*
X151267475Y-72967368D01*
X151060632Y-72760525D01*
X150817411Y-72598010D01*
X150547158Y-72486068D01*
X150260260Y-72429000D01*
X149967740Y-72429000D01*
X149680842Y-72486068D01*
X149410589Y-72598010D01*
X149167368Y-72760525D01*
X148960525Y-72967368D01*
X148844000Y-73141760D01*
X148727475Y-72967368D01*
X148520632Y-72760525D01*
X148277411Y-72598010D01*
X148007158Y-72486068D01*
X147720260Y-72429000D01*
X147427740Y-72429000D01*
X147140842Y-72486068D01*
X146870589Y-72598010D01*
X146627368Y-72760525D01*
X146420525Y-72967368D01*
X146304000Y-73141760D01*
X146187475Y-72967368D01*
X145980632Y-72760525D01*
X145737411Y-72598010D01*
X145467158Y-72486068D01*
X145180260Y-72429000D01*
X144887740Y-72429000D01*
X144600842Y-72486068D01*
X144330589Y-72598010D01*
X144087368Y-72760525D01*
X143880525Y-72967368D01*
X143764000Y-73141760D01*
X143647475Y-72967368D01*
X143440632Y-72760525D01*
X143197411Y-72598010D01*
X142927158Y-72486068D01*
X142640260Y-72429000D01*
X142347740Y-72429000D01*
X142127592Y-72472791D01*
X141432794Y-71777993D01*
X141408991Y-71748989D01*
X141293266Y-71654016D01*
X141161237Y-71583444D01*
X141017976Y-71539987D01*
X140906323Y-71528990D01*
X140906312Y-71528990D01*
X140868990Y-71525314D01*
X140831668Y-71528990D01*
X114477330Y-71528990D01*
X114440007Y-71525314D01*
X114402684Y-71528990D01*
X114402675Y-71528990D01*
X114291022Y-71539987D01*
X114147761Y-71583444D01*
X114015732Y-71654016D01*
X113900007Y-71748989D01*
X113876209Y-71777987D01*
X112920492Y-72733705D01*
X112717411Y-72598010D01*
X112447158Y-72486068D01*
X112160260Y-72429000D01*
X111867740Y-72429000D01*
X111580842Y-72486068D01*
X111310589Y-72598010D01*
X111067368Y-72760525D01*
X110860525Y-72967368D01*
X110744000Y-73141760D01*
X110627475Y-72967368D01*
X110420632Y-72760525D01*
X110177411Y-72598010D01*
X109907158Y-72486068D01*
X109620260Y-72429000D01*
X109327740Y-72429000D01*
X109040842Y-72486068D01*
X108770589Y-72598010D01*
X108527368Y-72760525D01*
X108395513Y-72892380D01*
X108373502Y-72819820D01*
X108314537Y-72709506D01*
X108235185Y-72612815D01*
X108138494Y-72533463D01*
X108028180Y-72474498D01*
X107908482Y-72438188D01*
X107784000Y-72425928D01*
X106084000Y-72425928D01*
X105959518Y-72438188D01*
X105839820Y-72474498D01*
X105729506Y-72533463D01*
X105632815Y-72612815D01*
X105553463Y-72709506D01*
X105494498Y-72819820D01*
X105458188Y-72939518D01*
X105445928Y-73064000D01*
X104775000Y-73064000D01*
X104775000Y-70739000D01*
X157353000Y-70739000D01*
X157353000Y-104521000D01*
G37*
%TD.AperFunction*%
D19*
X114463294Y-83962014D02*
X114648866Y-84188134D01*
X114874987Y-84373706D01*
X115132967Y-84511599D01*
X115412890Y-84596513D01*
X115704000Y-84625185D01*
X115995111Y-84596513D01*
X116268991Y-84513432D01*
X116268990Y-92353668D01*
X116265314Y-92390990D01*
X116268990Y-92428312D01*
X116268990Y-92428322D01*
X116279987Y-92539975D01*
X116310160Y-92639444D01*
X116323444Y-92683236D01*
X116394016Y-92815266D01*
X116433861Y-92863816D01*
X116488989Y-92930991D01*
X116517993Y-92954794D01*
X122209928Y-98646731D01*
X122209928Y-99570000D01*
X116602955Y-99570000D01*
X116439425Y-99406471D01*
X116664752Y-99286031D01*
X116913714Y-99081714D01*
X117118031Y-98832752D01*
X117269852Y-98548715D01*
X117363343Y-98240516D01*
X117387000Y-98000322D01*
X117387000Y-96339678D01*
X117363343Y-96099484D01*
X117269852Y-95791285D01*
X117118031Y-95507248D01*
X116913714Y-95258286D01*
X116664751Y-95053969D01*
X116380714Y-94902148D01*
X116072515Y-94808657D01*
X115752000Y-94777089D01*
X115431484Y-94808657D01*
X115186990Y-94882823D01*
X115186990Y-93382313D01*
X115190666Y-93344990D01*
X115186990Y-93307667D01*
X115186990Y-93307657D01*
X115175993Y-93196004D01*
X115132536Y-93052743D01*
X115118222Y-93025964D01*
X115061964Y-92920713D01*
X114990789Y-92833987D01*
X114966991Y-92804989D01*
X114937994Y-92781192D01*
X113736902Y-91580100D01*
X113782537Y-91524494D01*
X113841502Y-91414180D01*
X113877812Y-91294482D01*
X113890072Y-91170000D01*
X113890072Y-89170000D01*
X113877812Y-89045518D01*
X113841502Y-88925820D01*
X113782537Y-88815506D01*
X113703185Y-88718815D01*
X113606494Y-88639463D01*
X113496180Y-88580498D01*
X113376482Y-88544188D01*
X113252000Y-88531928D01*
X110688729Y-88531928D01*
X110288990Y-88132189D01*
X110288990Y-84558928D01*
X110412890Y-84596513D01*
X110704000Y-84625185D01*
X110995111Y-84596513D01*
X111275034Y-84511599D01*
X111533014Y-84373706D01*
X111759134Y-84188134D01*
X111944706Y-83962013D01*
X111954000Y-83944626D01*
X111963294Y-83962014D01*
X112148866Y-84188134D01*
X112374987Y-84373706D01*
X112632967Y-84511599D01*
X112912890Y-84596513D01*
X113204000Y-84625185D01*
X113495111Y-84596513D01*
X113775034Y-84511599D01*
X114033014Y-84373706D01*
X114259134Y-84188134D01*
X114444706Y-83962013D01*
X114454000Y-83944626D01*
X114463294Y-83962014D01*
%TA.AperFunction,Conductor*%
D20*
G36*
X114463294Y-83962014D02*
G01*
X114648866Y-84188134D01*
X114874987Y-84373706D01*
X115132967Y-84511599D01*
X115412890Y-84596513D01*
X115704000Y-84625185D01*
X115995111Y-84596513D01*
X116268991Y-84513432D01*
X116268990Y-92353668D01*
X116265314Y-92390990D01*
X116268990Y-92428312D01*
X116268990Y-92428322D01*
X116279987Y-92539975D01*
X116310160Y-92639444D01*
X116323444Y-92683236D01*
X116394016Y-92815266D01*
X116433861Y-92863816D01*
X116488989Y-92930991D01*
X116517993Y-92954794D01*
X122209928Y-98646731D01*
X122209928Y-99570000D01*
X116602955Y-99570000D01*
X116439425Y-99406471D01*
X116664752Y-99286031D01*
X116913714Y-99081714D01*
X117118031Y-98832752D01*
X117269852Y-98548715D01*
X117363343Y-98240516D01*
X117387000Y-98000322D01*
X117387000Y-96339678D01*
X117363343Y-96099484D01*
X117269852Y-95791285D01*
X117118031Y-95507248D01*
X116913714Y-95258286D01*
X116664751Y-95053969D01*
X116380714Y-94902148D01*
X116072515Y-94808657D01*
X115752000Y-94777089D01*
X115431484Y-94808657D01*
X115186990Y-94882823D01*
X115186990Y-93382313D01*
X115190666Y-93344990D01*
X115186990Y-93307667D01*
X115186990Y-93307657D01*
X115175993Y-93196004D01*
X115132536Y-93052743D01*
X115118222Y-93025964D01*
X115061964Y-92920713D01*
X114990789Y-92833987D01*
X114966991Y-92804989D01*
X114937994Y-92781192D01*
X113736902Y-91580100D01*
X113782537Y-91524494D01*
X113841502Y-91414180D01*
X113877812Y-91294482D01*
X113890072Y-91170000D01*
X113890072Y-89170000D01*
X113877812Y-89045518D01*
X113841502Y-88925820D01*
X113782537Y-88815506D01*
X113703185Y-88718815D01*
X113606494Y-88639463D01*
X113496180Y-88580498D01*
X113376482Y-88544188D01*
X113252000Y-88531928D01*
X110688729Y-88531928D01*
X110288990Y-88132189D01*
X110288990Y-84558928D01*
X110412890Y-84596513D01*
X110704000Y-84625185D01*
X110995111Y-84596513D01*
X111275034Y-84511599D01*
X111533014Y-84373706D01*
X111759134Y-84188134D01*
X111944706Y-83962013D01*
X111954000Y-83944626D01*
X111963294Y-83962014D01*
X112148866Y-84188134D01*
X112374987Y-84373706D01*
X112632967Y-84511599D01*
X112912890Y-84596513D01*
X113204000Y-84625185D01*
X113495111Y-84596513D01*
X113775034Y-84511599D01*
X114033014Y-84373706D01*
X114259134Y-84188134D01*
X114444706Y-83962013D01*
X114454000Y-83944626D01*
X114463294Y-83962014D01*
G37*
%TD.AperFunction*%
D19*
X126431748Y-96505858D02*
X126417605Y-96520000D01*
X127266397Y-97368792D01*
X127508689Y-97293271D01*
X127624525Y-97466632D01*
X127831368Y-97673475D01*
X128005760Y-97790000D01*
X127831368Y-97906525D01*
X127624525Y-98113368D01*
X127508000Y-98287760D01*
X127391475Y-98113368D01*
X127184632Y-97906525D01*
X127011271Y-97790689D01*
X127086792Y-97548397D01*
X126238000Y-96699605D01*
X126223858Y-96713748D01*
X126044253Y-96534143D01*
X126058395Y-96520000D01*
X126044253Y-96505858D01*
X126223858Y-96326253D01*
X126238000Y-96340395D01*
X126252143Y-96326253D01*
X126431748Y-96505858D01*
%TA.AperFunction,Conductor*%
D20*
G36*
X126431748Y-96505858D02*
G01*
X126417605Y-96520000D01*
X127266397Y-97368792D01*
X127508689Y-97293271D01*
X127624525Y-97466632D01*
X127831368Y-97673475D01*
X128005760Y-97790000D01*
X127831368Y-97906525D01*
X127624525Y-98113368D01*
X127508000Y-98287760D01*
X127391475Y-98113368D01*
X127184632Y-97906525D01*
X127011271Y-97790689D01*
X127086792Y-97548397D01*
X126238000Y-96699605D01*
X126223858Y-96713748D01*
X126044253Y-96534143D01*
X126058395Y-96520000D01*
X126044253Y-96505858D01*
X126223858Y-96326253D01*
X126238000Y-96340395D01*
X126252143Y-96326253D01*
X126431748Y-96505858D01*
G37*
%TD.AperFunction*%
D19*
X138178001Y-80221803D02*
X138178000Y-95241821D01*
X137991368Y-95366525D01*
X137784525Y-95573368D01*
X137668689Y-95746729D01*
X137426397Y-95671208D01*
X136577605Y-96520000D01*
X137426397Y-97368792D01*
X137668689Y-97293271D01*
X137784525Y-97466632D01*
X137991368Y-97673475D01*
X138165760Y-97790000D01*
X137991368Y-97906525D01*
X137784525Y-98113368D01*
X137668000Y-98287760D01*
X137551475Y-98113368D01*
X137344632Y-97906525D01*
X137171271Y-97790689D01*
X137246792Y-97548397D01*
X136398000Y-96699605D01*
X136383858Y-96713748D01*
X136204253Y-96534143D01*
X136218395Y-96520000D01*
X136204253Y-96505858D01*
X136383858Y-96326253D01*
X136398000Y-96340395D01*
X137246792Y-95491603D01*
X137169157Y-95242528D01*
X136905117Y-95116629D01*
X136650000Y-95051873D01*
X136650000Y-89603711D01*
X136693937Y-89559774D01*
X136807205Y-89390256D01*
X136885226Y-89201898D01*
X136925000Y-89001939D01*
X136925000Y-88798061D01*
X136885226Y-88598102D01*
X136807205Y-88409744D01*
X136693937Y-88240226D01*
X136549774Y-88096063D01*
X136380256Y-87982795D01*
X136191898Y-87904774D01*
X135991939Y-87865000D01*
X135793010Y-87865000D01*
X135793010Y-84504237D01*
X136001110Y-84574476D01*
X136231000Y-84453155D01*
X136231000Y-83185000D01*
X136485000Y-83185000D01*
X136485000Y-84453155D01*
X136714890Y-84574476D01*
X136931557Y-84501345D01*
X137187487Y-84363157D01*
X137411540Y-84177695D01*
X137595106Y-83952086D01*
X137731131Y-83695000D01*
X137814387Y-83416317D01*
X137682027Y-83185000D01*
X136485000Y-83185000D01*
X136231000Y-83185000D01*
X136211000Y-83185000D01*
X136211000Y-82931000D01*
X136231000Y-82931000D01*
X136231000Y-81662845D01*
X136485000Y-81662845D01*
X136485000Y-82931000D01*
X137682027Y-82931000D01*
X137814387Y-82699683D01*
X137731131Y-82421000D01*
X137595106Y-82163914D01*
X137411540Y-81938305D01*
X137187487Y-81752843D01*
X136931557Y-81614655D01*
X136714890Y-81541524D01*
X136485000Y-81662845D01*
X136231000Y-81662845D01*
X136001110Y-81541524D01*
X135793010Y-81611763D01*
X135793010Y-77836811D01*
X138178001Y-80221803D01*
%TA.AperFunction,Conductor*%
D20*
G36*
X138178001Y-80221803D02*
G01*
X138178000Y-95241821D01*
X137991368Y-95366525D01*
X137784525Y-95573368D01*
X137668689Y-95746729D01*
X137426397Y-95671208D01*
X136577605Y-96520000D01*
X137426397Y-97368792D01*
X137668689Y-97293271D01*
X137784525Y-97466632D01*
X137991368Y-97673475D01*
X138165760Y-97790000D01*
X137991368Y-97906525D01*
X137784525Y-98113368D01*
X137668000Y-98287760D01*
X137551475Y-98113368D01*
X137344632Y-97906525D01*
X137171271Y-97790689D01*
X137246792Y-97548397D01*
X136398000Y-96699605D01*
X136383858Y-96713748D01*
X136204253Y-96534143D01*
X136218395Y-96520000D01*
X136204253Y-96505858D01*
X136383858Y-96326253D01*
X136398000Y-96340395D01*
X137246792Y-95491603D01*
X137169157Y-95242528D01*
X136905117Y-95116629D01*
X136650000Y-95051873D01*
X136650000Y-89603711D01*
X136693937Y-89559774D01*
X136807205Y-89390256D01*
X136885226Y-89201898D01*
X136925000Y-89001939D01*
X136925000Y-88798061D01*
X136885226Y-88598102D01*
X136807205Y-88409744D01*
X136693937Y-88240226D01*
X136549774Y-88096063D01*
X136380256Y-87982795D01*
X136191898Y-87904774D01*
X135991939Y-87865000D01*
X135793010Y-87865000D01*
X135793010Y-84504237D01*
X136001110Y-84574476D01*
X136231000Y-84453155D01*
X136231000Y-83185000D01*
X136485000Y-83185000D01*
X136485000Y-84453155D01*
X136714890Y-84574476D01*
X136931557Y-84501345D01*
X137187487Y-84363157D01*
X137411540Y-84177695D01*
X137595106Y-83952086D01*
X137731131Y-83695000D01*
X137814387Y-83416317D01*
X137682027Y-83185000D01*
X136485000Y-83185000D01*
X136231000Y-83185000D01*
X136211000Y-83185000D01*
X136211000Y-82931000D01*
X136231000Y-82931000D01*
X136231000Y-81662845D01*
X136485000Y-81662845D01*
X136485000Y-82931000D01*
X137682027Y-82931000D01*
X137814387Y-82699683D01*
X137731131Y-82421000D01*
X137595106Y-82163914D01*
X137411540Y-81938305D01*
X137187487Y-81752843D01*
X136931557Y-81614655D01*
X136714890Y-81541524D01*
X136485000Y-81662845D01*
X136231000Y-81662845D01*
X136001110Y-81541524D01*
X135793010Y-81611763D01*
X135793010Y-77836811D01*
X138178001Y-80221803D01*
G37*
%TD.AperFunction*%
D19*
X131511748Y-96505858D02*
X131497605Y-96520000D01*
X131511748Y-96534143D01*
X131332143Y-96713748D01*
X131318000Y-96699605D01*
X131303858Y-96713748D01*
X131124253Y-96534143D01*
X131138395Y-96520000D01*
X131124253Y-96505858D01*
X131303858Y-96326253D01*
X131318000Y-96340395D01*
X131332143Y-96326253D01*
X131511748Y-96505858D01*
%TA.AperFunction,Conductor*%
D20*
G36*
X131511748Y-96505858D02*
G01*
X131497605Y-96520000D01*
X131511748Y-96534143D01*
X131332143Y-96713748D01*
X131318000Y-96699605D01*
X131303858Y-96713748D01*
X131124253Y-96534143D01*
X131138395Y-96520000D01*
X131124253Y-96505858D01*
X131303858Y-96326253D01*
X131318000Y-96340395D01*
X131332143Y-96326253D01*
X131511748Y-96505858D01*
G37*
%TD.AperFunction*%
D19*
X118874001Y-77732179D02*
X118874001Y-81666729D01*
X118777557Y-81614655D01*
X118560890Y-81541524D01*
X118331000Y-81662845D01*
X118331000Y-82931000D01*
X118351000Y-82931000D01*
X118351000Y-83185000D01*
X118331000Y-83185000D01*
X118331000Y-84453155D01*
X118560890Y-84574476D01*
X118777557Y-84501345D01*
X118874001Y-84449271D01*
X118874000Y-92418678D01*
X118870324Y-92456000D01*
X118874000Y-92493322D01*
X118874000Y-92493332D01*
X118884997Y-92604985D01*
X118917280Y-92711410D01*
X118928454Y-92748246D01*
X118999026Y-92880276D01*
X119028428Y-92916102D01*
X119093999Y-92996001D01*
X119123003Y-93019804D01*
X122256790Y-96153592D01*
X122213000Y-96373740D01*
X122213000Y-96500198D01*
X117788990Y-92076189D01*
X117788990Y-84554859D01*
X117847110Y-84574476D01*
X118077000Y-84453155D01*
X118077000Y-83185000D01*
X118057000Y-83185000D01*
X118057000Y-82931000D01*
X118077000Y-82931000D01*
X118077000Y-81662845D01*
X117847110Y-81541524D01*
X117788990Y-81561141D01*
X117788990Y-78762811D01*
X118841404Y-77710398D01*
X118874001Y-77732179D01*
%TA.AperFunction,Conductor*%
D20*
G36*
X118874001Y-77732179D02*
G01*
X118874001Y-81666729D01*
X118777557Y-81614655D01*
X118560890Y-81541524D01*
X118331000Y-81662845D01*
X118331000Y-82931000D01*
X118351000Y-82931000D01*
X118351000Y-83185000D01*
X118331000Y-83185000D01*
X118331000Y-84453155D01*
X118560890Y-84574476D01*
X118777557Y-84501345D01*
X118874001Y-84449271D01*
X118874000Y-92418678D01*
X118870324Y-92456000D01*
X118874000Y-92493322D01*
X118874000Y-92493332D01*
X118884997Y-92604985D01*
X118917280Y-92711410D01*
X118928454Y-92748246D01*
X118999026Y-92880276D01*
X119028428Y-92916102D01*
X119093999Y-92996001D01*
X119123003Y-93019804D01*
X122256790Y-96153592D01*
X122213000Y-96373740D01*
X122213000Y-96500198D01*
X117788990Y-92076189D01*
X117788990Y-84554859D01*
X117847110Y-84574476D01*
X118077000Y-84453155D01*
X118077000Y-83185000D01*
X118057000Y-83185000D01*
X118057000Y-82931000D01*
X118077000Y-82931000D01*
X118077000Y-81662845D01*
X117847110Y-81541524D01*
X117788990Y-81561141D01*
X117788990Y-78762811D01*
X118841404Y-77710398D01*
X118874001Y-77732179D01*
G37*
%TD.AperFunction*%
D19*
X129383000Y-78895802D02*
X129382999Y-92183000D01*
X129325802Y-92183000D01*
X127958800Y-90815999D01*
X127958800Y-90753861D01*
X127919026Y-90553902D01*
X127841005Y-90365544D01*
X127727737Y-90196026D01*
X127583574Y-90051863D01*
X127414056Y-89938595D01*
X127225698Y-89860574D01*
X127025739Y-89820800D01*
X126821861Y-89820800D01*
X126621902Y-89860574D01*
X126433544Y-89938595D01*
X126264026Y-90051863D01*
X126119863Y-90196026D01*
X126006595Y-90365544D01*
X125928574Y-90553902D01*
X125888800Y-90753861D01*
X125888800Y-90957739D01*
X125928574Y-91157698D01*
X126006595Y-91346056D01*
X126119863Y-91515574D01*
X126264026Y-91659737D01*
X126433544Y-91773005D01*
X126621902Y-91851026D01*
X126821861Y-91890800D01*
X126883999Y-91890800D01*
X128251000Y-93257802D01*
X128251000Y-93319939D01*
X128290774Y-93519898D01*
X128368795Y-93708256D01*
X128482063Y-93877774D01*
X128626226Y-94021937D01*
X128795744Y-94135205D01*
X128984102Y-94213226D01*
X129184061Y-94253000D01*
X129382999Y-94253000D01*
X129382999Y-95163247D01*
X129211158Y-95092068D01*
X128924260Y-95035000D01*
X128631740Y-95035000D01*
X128411592Y-95078790D01*
X124298990Y-90966189D01*
X124298990Y-84621072D01*
X125314000Y-84621072D01*
X125487254Y-84604008D01*
X125653850Y-84553472D01*
X125807386Y-84471405D01*
X125941962Y-84360962D01*
X126052405Y-84226386D01*
X126110954Y-84116850D01*
X126160460Y-84177695D01*
X126384513Y-84363157D01*
X126640443Y-84501345D01*
X126857110Y-84574476D01*
X127087000Y-84453155D01*
X127087000Y-83185000D01*
X127341000Y-83185000D01*
X127341000Y-84453155D01*
X127570890Y-84574476D01*
X127787557Y-84501345D01*
X128043487Y-84363157D01*
X128267540Y-84177695D01*
X128451106Y-83952086D01*
X128587131Y-83695000D01*
X128670387Y-83416317D01*
X128538027Y-83185000D01*
X127341000Y-83185000D01*
X127087000Y-83185000D01*
X127067000Y-83185000D01*
X127067000Y-82931000D01*
X127087000Y-82931000D01*
X127087000Y-81662845D01*
X127341000Y-81662845D01*
X127341000Y-82931000D01*
X128538027Y-82931000D01*
X128670387Y-82699683D01*
X128587131Y-82421000D01*
X128451106Y-82163914D01*
X128267540Y-81938305D01*
X128043487Y-81752843D01*
X127787557Y-81614655D01*
X127570890Y-81541524D01*
X127341000Y-81662845D01*
X127087000Y-81662845D01*
X126857110Y-81541524D01*
X126640443Y-81614655D01*
X126384513Y-81752843D01*
X126160460Y-81938305D01*
X126110954Y-81999150D01*
X126052405Y-81889614D01*
X125941962Y-81755038D01*
X125807386Y-81644595D01*
X125653850Y-81562528D01*
X125487254Y-81511992D01*
X125314000Y-81494928D01*
X124298990Y-81494928D01*
X124298990Y-80483811D01*
X126887592Y-77895210D01*
X127107740Y-77939000D01*
X127400260Y-77939000D01*
X127687158Y-77881932D01*
X127957411Y-77769990D01*
X128137115Y-77649916D01*
X129383000Y-78895802D01*
%TA.AperFunction,Conductor*%
D20*
G36*
X129383000Y-78895802D02*
G01*
X129382999Y-92183000D01*
X129325802Y-92183000D01*
X127958800Y-90815999D01*
X127958800Y-90753861D01*
X127919026Y-90553902D01*
X127841005Y-90365544D01*
X127727737Y-90196026D01*
X127583574Y-90051863D01*
X127414056Y-89938595D01*
X127225698Y-89860574D01*
X127025739Y-89820800D01*
X126821861Y-89820800D01*
X126621902Y-89860574D01*
X126433544Y-89938595D01*
X126264026Y-90051863D01*
X126119863Y-90196026D01*
X126006595Y-90365544D01*
X125928574Y-90553902D01*
X125888800Y-90753861D01*
X125888800Y-90957739D01*
X125928574Y-91157698D01*
X126006595Y-91346056D01*
X126119863Y-91515574D01*
X126264026Y-91659737D01*
X126433544Y-91773005D01*
X126621902Y-91851026D01*
X126821861Y-91890800D01*
X126883999Y-91890800D01*
X128251000Y-93257802D01*
X128251000Y-93319939D01*
X128290774Y-93519898D01*
X128368795Y-93708256D01*
X128482063Y-93877774D01*
X128626226Y-94021937D01*
X128795744Y-94135205D01*
X128984102Y-94213226D01*
X129184061Y-94253000D01*
X129382999Y-94253000D01*
X129382999Y-95163247D01*
X129211158Y-95092068D01*
X128924260Y-95035000D01*
X128631740Y-95035000D01*
X128411592Y-95078790D01*
X124298990Y-90966189D01*
X124298990Y-84621072D01*
X125314000Y-84621072D01*
X125487254Y-84604008D01*
X125653850Y-84553472D01*
X125807386Y-84471405D01*
X125941962Y-84360962D01*
X126052405Y-84226386D01*
X126110954Y-84116850D01*
X126160460Y-84177695D01*
X126384513Y-84363157D01*
X126640443Y-84501345D01*
X126857110Y-84574476D01*
X127087000Y-84453155D01*
X127087000Y-83185000D01*
X127341000Y-83185000D01*
X127341000Y-84453155D01*
X127570890Y-84574476D01*
X127787557Y-84501345D01*
X128043487Y-84363157D01*
X128267540Y-84177695D01*
X128451106Y-83952086D01*
X128587131Y-83695000D01*
X128670387Y-83416317D01*
X128538027Y-83185000D01*
X127341000Y-83185000D01*
X127087000Y-83185000D01*
X127067000Y-83185000D01*
X127067000Y-82931000D01*
X127087000Y-82931000D01*
X127087000Y-81662845D01*
X127341000Y-81662845D01*
X127341000Y-82931000D01*
X128538027Y-82931000D01*
X128670387Y-82699683D01*
X128587131Y-82421000D01*
X128451106Y-82163914D01*
X128267540Y-81938305D01*
X128043487Y-81752843D01*
X127787557Y-81614655D01*
X127570890Y-81541524D01*
X127341000Y-81662845D01*
X127087000Y-81662845D01*
X126857110Y-81541524D01*
X126640443Y-81614655D01*
X126384513Y-81752843D01*
X126160460Y-81938305D01*
X126110954Y-81999150D01*
X126052405Y-81889614D01*
X125941962Y-81755038D01*
X125807386Y-81644595D01*
X125653850Y-81562528D01*
X125487254Y-81511992D01*
X125314000Y-81494928D01*
X124298990Y-81494928D01*
X124298990Y-80483811D01*
X126887592Y-77895210D01*
X127107740Y-77939000D01*
X127400260Y-77939000D01*
X127687158Y-77881932D01*
X127957411Y-77769990D01*
X128137115Y-77649916D01*
X129383000Y-78895802D01*
G37*
%TD.AperFunction*%
D19*
X122301000Y-76327000D02*
X122321000Y-76327000D01*
X122321000Y-76581000D01*
X122301000Y-76581000D01*
X122301000Y-77774155D01*
X122530890Y-77895476D01*
X122678099Y-77850825D01*
X122778999Y-77802765D01*
X122778999Y-77822200D01*
X122577978Y-78023221D01*
X122548980Y-78047019D01*
X122525182Y-78076017D01*
X122525181Y-78076018D01*
X122454006Y-78162744D01*
X122383434Y-78294774D01*
X122354754Y-78389324D01*
X122339978Y-78438034D01*
X122332099Y-78518027D01*
X122325304Y-78587020D01*
X122328981Y-78624352D01*
X122328980Y-91430068D01*
X122325304Y-91467390D01*
X122328980Y-91504712D01*
X122328980Y-91504722D01*
X122339977Y-91616375D01*
X122367467Y-91706998D01*
X122383434Y-91759636D01*
X122454006Y-91891666D01*
X122473947Y-91915964D01*
X122548979Y-92007391D01*
X122577983Y-92031194D01*
X124113002Y-93566214D01*
X124113001Y-95088456D01*
X123844260Y-95035000D01*
X123551740Y-95035000D01*
X123331592Y-95078790D01*
X120394000Y-92141199D01*
X120394000Y-77732178D01*
X120580632Y-77607475D01*
X120787475Y-77400632D01*
X120909195Y-77218466D01*
X120978822Y-77335355D01*
X121173731Y-77551588D01*
X121407080Y-77725641D01*
X121669901Y-77850825D01*
X121817110Y-77895476D01*
X122047000Y-77774155D01*
X122047000Y-76581000D01*
X122027000Y-76581000D01*
X122027000Y-76327000D01*
X122047000Y-76327000D01*
X122047000Y-76307000D01*
X122301000Y-76307000D01*
X122301000Y-76327000D01*
%TA.AperFunction,Conductor*%
D20*
G36*
X122301000Y-76327000D02*
G01*
X122321000Y-76327000D01*
X122321000Y-76581000D01*
X122301000Y-76581000D01*
X122301000Y-77774155D01*
X122530890Y-77895476D01*
X122678099Y-77850825D01*
X122778999Y-77802765D01*
X122778999Y-77822200D01*
X122577978Y-78023221D01*
X122548980Y-78047019D01*
X122525182Y-78076017D01*
X122525181Y-78076018D01*
X122454006Y-78162744D01*
X122383434Y-78294774D01*
X122354754Y-78389324D01*
X122339978Y-78438034D01*
X122332099Y-78518027D01*
X122325304Y-78587020D01*
X122328981Y-78624352D01*
X122328980Y-91430068D01*
X122325304Y-91467390D01*
X122328980Y-91504712D01*
X122328980Y-91504722D01*
X122339977Y-91616375D01*
X122367467Y-91706998D01*
X122383434Y-91759636D01*
X122454006Y-91891666D01*
X122473947Y-91915964D01*
X122548979Y-92007391D01*
X122577983Y-92031194D01*
X124113002Y-93566214D01*
X124113001Y-95088456D01*
X123844260Y-95035000D01*
X123551740Y-95035000D01*
X123331592Y-95078790D01*
X120394000Y-92141199D01*
X120394000Y-77732178D01*
X120580632Y-77607475D01*
X120787475Y-77400632D01*
X120909195Y-77218466D01*
X120978822Y-77335355D01*
X121173731Y-77551588D01*
X121407080Y-77725641D01*
X121669901Y-77850825D01*
X121817110Y-77895476D01*
X122047000Y-77774155D01*
X122047000Y-76581000D01*
X122027000Y-76581000D01*
X122027000Y-76327000D01*
X122047000Y-76327000D01*
X122047000Y-76307000D01*
X122301000Y-76307000D01*
X122301000Y-76327000D01*
G37*
%TD.AperFunction*%
D19*
X112141000Y-76327000D02*
X112161000Y-76327000D01*
X112161000Y-76581000D01*
X112141000Y-76581000D01*
X112141000Y-77774155D01*
X112370890Y-77895476D01*
X112518099Y-77850825D01*
X112619000Y-77802765D01*
X112619000Y-80695667D01*
X112615323Y-80732999D01*
X112619000Y-80770332D01*
X112629997Y-80881985D01*
X112643179Y-80925441D01*
X112673453Y-81025245D01*
X112744025Y-81157275D01*
X112815200Y-81244001D01*
X112838999Y-81273000D01*
X112867997Y-81296798D01*
X113074744Y-81503546D01*
X112912889Y-81519487D01*
X112632966Y-81604401D01*
X112374986Y-81742294D01*
X112148866Y-81927866D01*
X111963294Y-82153987D01*
X111954000Y-82171374D01*
X111944706Y-82153986D01*
X111759134Y-81927866D01*
X111533013Y-81742294D01*
X111275033Y-81604401D01*
X110995110Y-81519487D01*
X110704000Y-81490815D01*
X110412889Y-81519487D01*
X110288990Y-81557071D01*
X110288990Y-77695435D01*
X110420632Y-77607475D01*
X110627475Y-77400632D01*
X110749195Y-77218466D01*
X110818822Y-77335355D01*
X111013731Y-77551588D01*
X111247080Y-77725641D01*
X111509901Y-77850825D01*
X111657110Y-77895476D01*
X111887000Y-77774155D01*
X111887000Y-76581000D01*
X111867000Y-76581000D01*
X111867000Y-76327000D01*
X111887000Y-76327000D01*
X111887000Y-76307000D01*
X112141000Y-76307000D01*
X112141000Y-76327000D01*
%TA.AperFunction,Conductor*%
D20*
G36*
X112141000Y-76327000D02*
G01*
X112161000Y-76327000D01*
X112161000Y-76581000D01*
X112141000Y-76581000D01*
X112141000Y-77774155D01*
X112370890Y-77895476D01*
X112518099Y-77850825D01*
X112619000Y-77802765D01*
X112619000Y-80695667D01*
X112615323Y-80732999D01*
X112619000Y-80770332D01*
X112629997Y-80881985D01*
X112643179Y-80925441D01*
X112673453Y-81025245D01*
X112744025Y-81157275D01*
X112815200Y-81244001D01*
X112838999Y-81273000D01*
X112867997Y-81296798D01*
X113074744Y-81503546D01*
X112912889Y-81519487D01*
X112632966Y-81604401D01*
X112374986Y-81742294D01*
X112148866Y-81927866D01*
X111963294Y-82153987D01*
X111954000Y-82171374D01*
X111944706Y-82153986D01*
X111759134Y-81927866D01*
X111533013Y-81742294D01*
X111275033Y-81604401D01*
X110995110Y-81519487D01*
X110704000Y-81490815D01*
X110412889Y-81519487D01*
X110288990Y-81557071D01*
X110288990Y-77695435D01*
X110420632Y-77607475D01*
X110627475Y-77400632D01*
X110749195Y-77218466D01*
X110818822Y-77335355D01*
X111013731Y-77551588D01*
X111247080Y-77725641D01*
X111509901Y-77850825D01*
X111657110Y-77895476D01*
X111887000Y-77774155D01*
X111887000Y-76581000D01*
X111867000Y-76581000D01*
X111867000Y-76327000D01*
X111887000Y-76327000D01*
X111887000Y-76307000D01*
X112141000Y-76307000D01*
X112141000Y-76327000D01*
G37*
%TD.AperFunction*%
D19*
X129921000Y-76327000D02*
X129941000Y-76327000D01*
X129941000Y-76581000D01*
X129921000Y-76581000D01*
X129921000Y-76601000D01*
X129667000Y-76601000D01*
X129667000Y-76581000D01*
X129647000Y-76581000D01*
X129647000Y-76327000D01*
X129667000Y-76327000D01*
X129667000Y-76307000D01*
X129921000Y-76307000D01*
X129921000Y-76327000D01*
%TA.AperFunction,Conductor*%
D20*
G36*
X129921000Y-76327000D02*
G01*
X129941000Y-76327000D01*
X129941000Y-76581000D01*
X129921000Y-76581000D01*
X129921000Y-76601000D01*
X129667000Y-76601000D01*
X129667000Y-76581000D01*
X129647000Y-76581000D01*
X129647000Y-76327000D01*
X129667000Y-76327000D01*
X129667000Y-76307000D01*
X129921000Y-76307000D01*
X129921000Y-76327000D01*
G37*
%TD.AperFunction*%
D19*
X147701000Y-76327000D02*
X147721000Y-76327000D01*
X147721000Y-76581000D01*
X147701000Y-76581000D01*
X147701000Y-76601000D01*
X147447000Y-76601000D01*
X147447000Y-76581000D01*
X147427000Y-76581000D01*
X147427000Y-76327000D01*
X147447000Y-76327000D01*
X147447000Y-76307000D01*
X147701000Y-76307000D01*
X147701000Y-76327000D01*
%TA.AperFunction,Conductor*%
D20*
G36*
X147701000Y-76327000D02*
G01*
X147721000Y-76327000D01*
X147721000Y-76581000D01*
X147701000Y-76581000D01*
X147701000Y-76601000D01*
X147447000Y-76601000D01*
X147447000Y-76581000D01*
X147427000Y-76581000D01*
X147427000Y-76327000D01*
X147447000Y-76327000D01*
X147447000Y-76307000D01*
X147701000Y-76307000D01*
X147701000Y-76327000D01*
G37*
%TD.AperFunction*%
D19*
X137541000Y-73787000D02*
X137561000Y-73787000D01*
X137561000Y-74041000D01*
X137541000Y-74041000D01*
X137541000Y-74061000D01*
X137287000Y-74061000D01*
X137287000Y-74041000D01*
X137267000Y-74041000D01*
X137267000Y-73787000D01*
X137287000Y-73787000D01*
X137287000Y-73767000D01*
X137541000Y-73767000D01*
X137541000Y-73787000D01*
%TA.AperFunction,Conductor*%
D20*
G36*
X137541000Y-73787000D02*
G01*
X137561000Y-73787000D01*
X137561000Y-74041000D01*
X137541000Y-74041000D01*
X137541000Y-74061000D01*
X137287000Y-74061000D01*
X137287000Y-74041000D01*
X137267000Y-74041000D01*
X137267000Y-73787000D01*
X137287000Y-73787000D01*
X137287000Y-73767000D01*
X137541000Y-73767000D01*
X137541000Y-73787000D01*
G37*
%TD.AperFunction*%
D19*
X117221000Y-73787000D02*
X117241000Y-73787000D01*
X117241000Y-74041000D01*
X117221000Y-74041000D01*
X117221000Y-74061000D01*
X116967000Y-74061000D01*
X116967000Y-74041000D01*
X116947000Y-74041000D01*
X116947000Y-73787000D01*
X116967000Y-73787000D01*
X116967000Y-73767000D01*
X117221000Y-73767000D01*
X117221000Y-73787000D01*
%TA.AperFunction,Conductor*%
D20*
G36*
X117221000Y-73787000D02*
G01*
X117241000Y-73787000D01*
X117241000Y-74041000D01*
X117221000Y-74041000D01*
X117221000Y-74061000D01*
X116967000Y-74061000D01*
X116967000Y-74041000D01*
X116947000Y-74041000D01*
X116947000Y-73787000D01*
X116967000Y-73787000D01*
X116967000Y-73767000D01*
X117221000Y-73767000D01*
X117221000Y-73787000D01*
G37*
%TD.AperFunction*%
%TD*%
M02*
