M48
; DRILL file {KiCad (5.1.9)-1} date 05/20/21 14:11:49
; FORMAT={-:-/ absolute / metric / decimal}
; #@! TF.CreationDate,2021-05-20T14:11:49+09:00
; #@! TF.GenerationSoftware,Kicad,Pcbnew,(5.1.9)-1
; #@! TF.FileFunction,Plated,1,2,PTH
FMAT,2
METRIC
T1C0.400
T2C0.850
T3C1.000
%
G90
G05
T1
X108.204Y-80.772
X108.204Y-86.36
X111.879Y-81.669
X114.059Y-86.119
X121.92Y-96.012
X126.924Y-90.856
X129.032Y-94.742
X129.286Y-93.218
X135.89Y-88.9
X137.922Y-89.662
X140.113Y-94.075
X140.97Y-83.82
X147.828Y-92.456
T2
X108.204Y-83.058
X110.704Y-83.058
X113.204Y-83.058
X115.704Y-83.058
X118.204Y-83.058
X124.714Y-83.058
X127.214Y-83.058
X133.858Y-83.058
X136.358Y-83.058
X142.748Y-83.058
X145.248Y-83.058
X151.384Y-100.33
X151.638Y-83.058
X153.884Y-100.33
X154.138Y-83.058
T3
X106.934Y-73.914
X106.934Y-76.454
X109.474Y-73.914
X109.474Y-76.454
X112.014Y-73.914
X112.014Y-76.454
X114.554Y-73.914
X114.554Y-76.454
X117.094Y-73.914
X117.094Y-76.454
X119.634Y-73.914
X119.634Y-76.454
X122.174Y-73.914
X122.174Y-76.454
X123.698Y-96.52
X123.698Y-99.06
X124.714Y-73.914
X124.714Y-76.454
X126.238Y-96.52
X126.238Y-99.06
X127.254Y-73.914
X127.254Y-76.454
X128.778Y-96.52
X128.778Y-99.06
X129.794Y-73.914
X129.794Y-76.454
X131.318Y-96.52
X131.318Y-99.06
X132.334Y-73.914
X132.334Y-76.454
X133.858Y-96.52
X133.858Y-99.06
X134.874Y-73.914
X134.874Y-76.454
X136.398Y-96.52
X136.398Y-99.06
X137.414Y-73.914
X137.414Y-76.454
X138.938Y-96.52
X138.938Y-99.06
X139.954Y-73.914
X139.954Y-76.454
X141.478Y-96.52
X141.478Y-99.06
X142.494Y-73.914
X142.494Y-76.454
X145.034Y-73.914
X145.034Y-76.454
X147.574Y-73.914
X147.574Y-76.454
X150.114Y-73.914
X150.114Y-76.454
X152.654Y-73.914
X152.654Y-76.454
X155.194Y-73.914
X155.194Y-76.454
T3
G00X106.752Y-96.42
M15
G01X106.752Y-97.92
M16
G05
G00X110.252Y-90.17
M15
G01X112.252Y-90.17
M16
G05
G00X110.602Y-96.17
M15
G01X111.902Y-96.17
M16
G05
G00X115.752Y-96.42
M15
G01X115.752Y-97.92
M16
G05
T0
M30
